<?xml version="1.0" encoding="utf-8" standalone="no"?>
<!DOCTYPE svg PUBLIC "-//W3C//DTD SVG 1.1//EN"
  "http://www.w3.org/Graphics/SVG/1.1/DTD/svg11.dtd">
<!-- Created with matplotlib (http://matplotlib.org/) -->
<svg height="288pt" version="1.1" viewBox="0 0 432 288" width="432pt" xmlns="http://www.w3.org/2000/svg" xmlns:xlink="http://www.w3.org/1999/xlink">
 <defs>
  <style type="text/css">
*{stroke-linecap:butt;stroke-linejoin:round;}
  </style>
 </defs>
 <g id="figure_1">
  <g id="patch_1">
   <path d="M 0 288 
L 432 288 
L 432 0 
L 0 0 
z
" style="fill:#ffffff;"/>
  </g>
  <g id="axes_1">
   <g id="patch_2">
    <path d="M 54 252 
L 388.8 252 
L 388.8 34.56 
L 54 34.56 
z
" style="fill:#ffffff;"/>
   </g>
   <g id="matplotlib.axis_1">
    <g id="xtick_1">
     <g id="line2d_1">
      <defs>
       <path d="M 0 0 
L 0 3.5 
" id="m2a6e5a43d1" style="stroke:#000000;stroke-width:0.8;"/>
      </defs>
      <g>
       <use style="stroke:#000000;stroke-width:0.8;" x="69.218182" xlink:href="#m2a6e5a43d1" y="252"/>
      </g>
     </g>
     <g id="text_1">
      <!-- 0 -->
      <defs>
       <path d="M 31.78125 66.40625 
Q 24.171875 66.40625 20.328125 58.90625 
Q 16.5 51.421875 16.5 36.375 
Q 16.5 21.390625 20.328125 13.890625 
Q 24.171875 6.390625 31.78125 6.390625 
Q 39.453125 6.390625 43.28125 13.890625 
Q 47.125 21.390625 47.125 36.375 
Q 47.125 51.421875 43.28125 58.90625 
Q 39.453125 66.40625 31.78125 66.40625 
M 31.78125 74.21875 
Q 44.046875 74.21875 50.515625 64.515625 
Q 56.984375 54.828125 56.984375 36.375 
Q 56.984375 17.96875 50.515625 8.265625 
Q 44.046875 -1.421875 31.78125 -1.421875 
Q 19.53125 -1.421875 13.0625 8.265625 
Q 6.59375 17.96875 6.59375 36.375 
Q 6.59375 54.828125 13.0625 64.515625 
Q 19.53125 74.21875 31.78125 74.21875 
" id="DejaVuSans-30"/>
      </defs>
      <g transform="translate(66.036932 266.598437)scale(0.1 -0.1)">
       <use xlink:href="#DejaVuSans-30"/>
      </g>
     </g>
    </g>
    <g id="xtick_2">
     <g id="line2d_2">
      <g>
       <use style="stroke:#000000;stroke-width:0.8;" x="112.698701" xlink:href="#m2a6e5a43d1" y="252"/>
      </g>
     </g>
     <g id="text_2">
      <!-- 20 -->
      <defs>
       <path d="M 19.1875 8.296875 
L 53.609375 8.296875 
L 53.609375 0 
L 7.328125 0 
L 7.328125 8.296875 
Q 12.9375 14.109375 22.625 23.890625 
Q 32.328125 33.6875 34.8125 36.53125 
Q 39.546875 41.84375 41.421875 45.53125 
Q 43.3125 49.21875 43.3125 52.78125 
Q 43.3125 58.59375 39.234375 62.25 
Q 35.15625 65.921875 28.609375 65.921875 
Q 23.96875 65.921875 18.8125 64.3125 
Q 13.671875 62.703125 7.8125 59.421875 
L 7.8125 69.390625 
Q 13.765625 71.78125 18.9375 73 
Q 24.125 74.21875 28.421875 74.21875 
Q 39.75 74.21875 46.484375 68.546875 
Q 53.21875 62.890625 53.21875 53.421875 
Q 53.21875 48.921875 51.53125 44.890625 
Q 49.859375 40.875 45.40625 35.40625 
Q 44.1875 33.984375 37.640625 27.21875 
Q 31.109375 20.453125 19.1875 8.296875 
" id="DejaVuSans-32"/>
      </defs>
      <g transform="translate(106.336201 266.598437)scale(0.1 -0.1)">
       <use xlink:href="#DejaVuSans-32"/>
       <use x="63.623047" xlink:href="#DejaVuSans-30"/>
      </g>
     </g>
    </g>
    <g id="xtick_3">
     <g id="line2d_3">
      <g>
       <use style="stroke:#000000;stroke-width:0.8;" x="156.179221" xlink:href="#m2a6e5a43d1" y="252"/>
      </g>
     </g>
     <g id="text_3">
      <!-- 40 -->
      <defs>
       <path d="M 37.796875 64.3125 
L 12.890625 25.390625 
L 37.796875 25.390625 
z
M 35.203125 72.90625 
L 47.609375 72.90625 
L 47.609375 25.390625 
L 58.015625 25.390625 
L 58.015625 17.1875 
L 47.609375 17.1875 
L 47.609375 0 
L 37.796875 0 
L 37.796875 17.1875 
L 4.890625 17.1875 
L 4.890625 26.703125 
z
" id="DejaVuSans-34"/>
      </defs>
      <g transform="translate(149.816721 266.598437)scale(0.1 -0.1)">
       <use xlink:href="#DejaVuSans-34"/>
       <use x="63.623047" xlink:href="#DejaVuSans-30"/>
      </g>
     </g>
    </g>
    <g id="xtick_4">
     <g id="line2d_4">
      <g>
       <use style="stroke:#000000;stroke-width:0.8;" x="199.65974" xlink:href="#m2a6e5a43d1" y="252"/>
      </g>
     </g>
     <g id="text_4">
      <!-- 60 -->
      <defs>
       <path d="M 33.015625 40.375 
Q 26.375 40.375 22.484375 35.828125 
Q 18.609375 31.296875 18.609375 23.390625 
Q 18.609375 15.53125 22.484375 10.953125 
Q 26.375 6.390625 33.015625 6.390625 
Q 39.65625 6.390625 43.53125 10.953125 
Q 47.40625 15.53125 47.40625 23.390625 
Q 47.40625 31.296875 43.53125 35.828125 
Q 39.65625 40.375 33.015625 40.375 
M 52.59375 71.296875 
L 52.59375 62.3125 
Q 48.875 64.0625 45.09375 64.984375 
Q 41.3125 65.921875 37.59375 65.921875 
Q 27.828125 65.921875 22.671875 59.328125 
Q 17.53125 52.734375 16.796875 39.40625 
Q 19.671875 43.65625 24.015625 45.921875 
Q 28.375 48.1875 33.59375 48.1875 
Q 44.578125 48.1875 50.953125 41.515625 
Q 57.328125 34.859375 57.328125 23.390625 
Q 57.328125 12.15625 50.6875 5.359375 
Q 44.046875 -1.421875 33.015625 -1.421875 
Q 20.359375 -1.421875 13.671875 8.265625 
Q 6.984375 17.96875 6.984375 36.375 
Q 6.984375 53.65625 15.1875 63.9375 
Q 23.390625 74.21875 37.203125 74.21875 
Q 40.921875 74.21875 44.703125 73.484375 
Q 48.484375 72.75 52.59375 71.296875 
" id="DejaVuSans-36"/>
      </defs>
      <g transform="translate(193.29724 266.598437)scale(0.1 -0.1)">
       <use xlink:href="#DejaVuSans-36"/>
       <use x="63.623047" xlink:href="#DejaVuSans-30"/>
      </g>
     </g>
    </g>
    <g id="xtick_5">
     <g id="line2d_5">
      <g>
       <use style="stroke:#000000;stroke-width:0.8;" x="243.14026" xlink:href="#m2a6e5a43d1" y="252"/>
      </g>
     </g>
     <g id="text_5">
      <!-- 80 -->
      <defs>
       <path d="M 31.78125 34.625 
Q 24.75 34.625 20.71875 30.859375 
Q 16.703125 27.09375 16.703125 20.515625 
Q 16.703125 13.921875 20.71875 10.15625 
Q 24.75 6.390625 31.78125 6.390625 
Q 38.8125 6.390625 42.859375 10.171875 
Q 46.921875 13.96875 46.921875 20.515625 
Q 46.921875 27.09375 42.890625 30.859375 
Q 38.875 34.625 31.78125 34.625 
M 21.921875 38.8125 
Q 15.578125 40.375 12.03125 44.71875 
Q 8.5 49.078125 8.5 55.328125 
Q 8.5 64.0625 14.71875 69.140625 
Q 20.953125 74.21875 31.78125 74.21875 
Q 42.671875 74.21875 48.875 69.140625 
Q 55.078125 64.0625 55.078125 55.328125 
Q 55.078125 49.078125 51.53125 44.71875 
Q 48 40.375 41.703125 38.8125 
Q 48.828125 37.15625 52.796875 32.3125 
Q 56.78125 27.484375 56.78125 20.515625 
Q 56.78125 9.90625 50.3125 4.234375 
Q 43.84375 -1.421875 31.78125 -1.421875 
Q 19.734375 -1.421875 13.25 4.234375 
Q 6.78125 9.90625 6.78125 20.515625 
Q 6.78125 27.484375 10.78125 32.3125 
Q 14.796875 37.15625 21.921875 38.8125 
M 18.3125 54.390625 
Q 18.3125 48.734375 21.84375 45.5625 
Q 25.390625 42.390625 31.78125 42.390625 
Q 38.140625 42.390625 41.71875 45.5625 
Q 45.3125 48.734375 45.3125 54.390625 
Q 45.3125 60.0625 41.71875 63.234375 
Q 38.140625 66.40625 31.78125 66.40625 
Q 25.390625 66.40625 21.84375 63.234375 
Q 18.3125 60.0625 18.3125 54.390625 
" id="DejaVuSans-38"/>
      </defs>
      <g transform="translate(236.77776 266.598437)scale(0.1 -0.1)">
       <use xlink:href="#DejaVuSans-38"/>
       <use x="63.623047" xlink:href="#DejaVuSans-30"/>
      </g>
     </g>
    </g>
    <g id="xtick_6">
     <g id="line2d_6">
      <g>
       <use style="stroke:#000000;stroke-width:0.8;" x="286.620779" xlink:href="#m2a6e5a43d1" y="252"/>
      </g>
     </g>
     <g id="text_6">
      <!-- 100 -->
      <defs>
       <path d="M 12.40625 8.296875 
L 28.515625 8.296875 
L 28.515625 63.921875 
L 10.984375 60.40625 
L 10.984375 69.390625 
L 28.421875 72.90625 
L 38.28125 72.90625 
L 38.28125 8.296875 
L 54.390625 8.296875 
L 54.390625 0 
L 12.40625 0 
z
" id="DejaVuSans-31"/>
      </defs>
      <g transform="translate(277.077029 266.598437)scale(0.1 -0.1)">
       <use xlink:href="#DejaVuSans-31"/>
       <use x="63.623047" xlink:href="#DejaVuSans-30"/>
       <use x="127.246094" xlink:href="#DejaVuSans-30"/>
      </g>
     </g>
    </g>
    <g id="xtick_7">
     <g id="line2d_7">
      <g>
       <use style="stroke:#000000;stroke-width:0.8;" x="330.101299" xlink:href="#m2a6e5a43d1" y="252"/>
      </g>
     </g>
     <g id="text_7">
      <!-- 120 -->
      <g transform="translate(320.557549 266.598437)scale(0.1 -0.1)">
       <use xlink:href="#DejaVuSans-31"/>
       <use x="63.623047" xlink:href="#DejaVuSans-32"/>
       <use x="127.246094" xlink:href="#DejaVuSans-30"/>
      </g>
     </g>
    </g>
    <g id="xtick_8">
     <g id="line2d_8">
      <g>
       <use style="stroke:#000000;stroke-width:0.8;" x="373.581818" xlink:href="#m2a6e5a43d1" y="252"/>
      </g>
     </g>
     <g id="text_8">
      <!-- 140 -->
      <g transform="translate(364.038068 266.598437)scale(0.1 -0.1)">
       <use xlink:href="#DejaVuSans-31"/>
       <use x="63.623047" xlink:href="#DejaVuSans-34"/>
       <use x="127.246094" xlink:href="#DejaVuSans-30"/>
      </g>
     </g>
    </g>
   </g>
   <g id="matplotlib.axis_2">
    <g id="ytick_1">
     <g id="line2d_9">
      <defs>
       <path d="M 0 0 
L -3.5 0 
" id="m676a3988c8" style="stroke:#000000;stroke-width:0.8;"/>
      </defs>
      <g>
       <use style="stroke:#000000;stroke-width:0.8;" x="54" xlink:href="#m676a3988c8" y="216.319977"/>
      </g>
     </g>
     <g id="text_9">
      <!-- −2 -->
      <defs>
       <path d="M 10.59375 35.5 
L 73.1875 35.5 
L 73.1875 27.203125 
L 10.59375 27.203125 
z
" id="DejaVuSans-2212"/>
      </defs>
      <g transform="translate(32.257812 220.119195)scale(0.1 -0.1)">
       <use xlink:href="#DejaVuSans-2212"/>
       <use x="83.789062" xlink:href="#DejaVuSans-32"/>
      </g>
     </g>
    </g>
    <g id="ytick_2">
     <g id="line2d_10">
      <g>
       <use style="stroke:#000000;stroke-width:0.8;" x="54" xlink:href="#m676a3988c8" y="176.190944"/>
      </g>
     </g>
     <g id="text_10">
      <!-- −1 -->
      <g transform="translate(32.257812 179.990162)scale(0.1 -0.1)">
       <use xlink:href="#DejaVuSans-2212"/>
       <use x="83.789062" xlink:href="#DejaVuSans-31"/>
      </g>
     </g>
    </g>
    <g id="ytick_3">
     <g id="line2d_11">
      <g>
       <use style="stroke:#000000;stroke-width:0.8;" x="54" xlink:href="#m676a3988c8" y="136.061911"/>
      </g>
     </g>
     <g id="text_11">
      <!-- 0 -->
      <g transform="translate(40.6375 139.861129)scale(0.1 -0.1)">
       <use xlink:href="#DejaVuSans-30"/>
      </g>
     </g>
    </g>
    <g id="ytick_4">
     <g id="line2d_12">
      <g>
       <use style="stroke:#000000;stroke-width:0.8;" x="54" xlink:href="#m676a3988c8" y="95.932878"/>
      </g>
     </g>
     <g id="text_12">
      <!-- 1 -->
      <g transform="translate(40.6375 99.732096)scale(0.1 -0.1)">
       <use xlink:href="#DejaVuSans-31"/>
      </g>
     </g>
    </g>
    <g id="ytick_5">
     <g id="line2d_13">
      <g>
       <use style="stroke:#000000;stroke-width:0.8;" x="54" xlink:href="#m676a3988c8" y="55.803845"/>
      </g>
     </g>
     <g id="text_13">
      <!-- 2 -->
      <g transform="translate(40.6375 59.603063)scale(0.1 -0.1)">
       <use xlink:href="#DejaVuSans-32"/>
      </g>
     </g>
    </g>
   </g>
   <g id="line2d_14">
    <path clip-path="url(#p06d7547208)" d="M 69.218182 135.412632 
L 69.399459 135.718411 
L 69.762012 124.072909 
L 69.943289 132.208591 
L 70.124565 134.528703 
L 70.305842 148.877206 
L 70.487119 149.182359 
L 70.668396 147.760407 
L 70.849672 141.238961 
L 71.030949 121.011412 
L 71.574779 103.133459 
L 71.756056 106.712134 
L 72.299886 76.9004 
L 72.481163 73.386541 
L 72.66244 105.71461 
L 72.843716 116.192461 
L 73.20627 96.485049 
L 73.387547 113.960854 
L 73.931377 99.656194 
L 74.112654 104.587542 
L 74.29393 114.885976 
L 74.475207 115.542002 
L 74.656484 111.987336 
L 74.837761 115.603094 
L 75.019037 137.074706 
L 75.200314 138.903803 
L 75.381591 137.651279 
L 75.562868 122.578832 
L 75.744144 118.145742 
L 76.106698 126.570692 
L 76.287974 124.495234 
L 76.650528 142.719971 
L 76.831805 141.882362 
L 77.013081 123.306645 
L 77.194358 156.385051 
L 77.375635 160.982197 
L 77.738188 143.674721 
L 77.919465 143.814121 
L 78.100742 129.391065 
L 78.282019 124.929756 
L 78.463295 128.136081 
L 78.644572 121.826425 
L 78.825849 121.894364 
L 79.007125 129.583724 
L 79.369679 85.181507 
L 79.732232 118.643482 
L 79.913509 122.812436 
L 80.094786 140.36894 
L 80.276063 127.864556 
L 80.457339 126.322089 
L 80.638616 121.110952 
L 80.819893 134.50924 
L 81.00117 132.955397 
L 81.182446 123.691498 
L 81.545 138.629675 
L 81.726276 133.790027 
L 81.907553 114.044438 
L 82.270107 120.525402 
L 82.451383 135.087113 
L 82.63266 123.219813 
L 82.813937 135.938551 
L 82.995214 137.031811 
L 83.357767 188.568102 
L 83.720321 194.71924 
L 84.264151 165.585892 
L 84.445427 161.953793 
L 84.626704 161.889386 
L 84.989258 123.7194 
L 85.170534 143.698526 
L 85.351811 137.361051 
L 85.533088 162.509467 
L 85.714365 162.17248 
L 85.895641 150.738133 
L 86.076918 146.455687 
L 86.258195 137.718917 
L 86.439472 138.555008 
L 86.620748 132.472079 
L 86.802025 122.113211 
L 86.983302 121.353894 
L 87.164578 125.540885 
L 87.345855 123.657794 
L 87.527132 130.791608 
L 87.708409 131.865156 
L 87.889685 128.304118 
L 88.070962 146.53243 
L 88.252239 132.268508 
L 88.433516 101.169496 
L 88.614792 105.493716 
L 88.796069 117.608715 
L 88.977346 115.369844 
L 89.158623 103.97155 
L 89.339899 103.776526 
L 89.521176 95.973649 
L 89.883729 127.198964 
L 90.065006 156.529616 
L 90.42756 118.133679 
L 90.608836 122.223923 
L 90.97139 112.704919 
L 91.152667 123.46511 
L 91.333943 110.571588 
L 91.51522 111.903751 
L 91.696497 119.319211 
L 91.877774 122.171414 
L 92.240327 107.749566 
L 92.421604 105.547039 
L 92.602881 87.963252 
L 92.784157 108.938304 
L 92.965434 111.049159 
L 93.327987 133.144273 
L 93.509264 137.197142 
L 93.690541 153.133022 
L 93.871818 147.060701 
L 94.234371 157.258118 
L 94.415648 180.324675 
L 94.778201 138.33985 
L 94.959478 146.473031 
L 95.140755 138.726364 
L 95.503308 134.272111 
L 95.684585 129.110021 
L 95.865862 139.57976 
L 96.047138 132.193303 
L 96.409692 166.474469 
L 96.590969 168.149089 
L 96.772245 162.314946 
L 96.953522 166.707558 
L 97.316076 155.927672 
L 97.497352 154.885561 
L 97.678629 159.37484 
L 98.041183 150.00559 
L 98.222459 121.936351 
L 98.585013 130.856906 
L 98.766289 157.99955 
L 98.947566 156.116427 
L 99.128843 144.49152 
L 99.31012 143.509666 
L 99.85395 154.47791 
L 100.39778 137.528896 
L 100.579057 139.306148 
L 100.760334 122.517379 
L 100.94161 123.315782 
L 101.122887 135.841593 
L 101.304164 130.817784 
L 101.48544 142.073581 
L 102.210547 133.454335 
L 102.391824 133.668739 
L 102.573101 130.739336 
L 102.935654 134.765988 
L 103.116931 157.485453 
L 103.298208 136.369736 
L 103.479485 143.065258 
L 103.660761 155.139425 
L 103.842038 157.645191 
L 104.204591 153.346661 
L 104.567145 140.000439 
L 104.748422 140.552735 
L 104.929698 142.320101 
L 105.110975 154.708941 
L 105.473529 193.188238 
L 105.836082 169.641986 
L 106.017359 154.610677 
L 106.198636 155.430489 
L 106.379912 151.595927 
L 106.561189 154.785828 
L 106.742466 153.314879 
L 106.923742 155.458295 
L 107.105019 168.384165 
L 107.286296 155.679069 
L 107.467573 157.873067 
L 107.648849 142.798115 
L 107.830126 155.938872 
L 108.19268 129.52839 
L 108.373956 131.51009 
L 108.917787 152.022539 
L 109.28034 141.646756 
L 109.461617 153.577082 
L 110.005447 107.424769 
L 110.549277 149.696396 
L 111.093107 155.282437 
L 111.455661 133.557649 
L 111.636938 101.287908 
L 111.999491 89.613157 
L 112.362045 127.571799 
L 112.724598 116.127059 
L 113.087151 123.561933 
L 113.268428 135.256782 
L 113.449705 136.204935 
L 113.630982 141.584524 
L 113.812258 140.854148 
L 113.993535 153.839718 
L 114.174812 143.923276 
L 114.537365 115.989918 
L 114.899919 140.535844 
L 115.081196 133.457871 
L 115.262472 131.784015 
L 115.443749 128.306778 
L 116.168856 175.617724 
L 116.531409 162.76287 
L 117.437793 122.737699 
L 117.61907 122.879439 
L 117.800347 132.180218 
L 117.981623 148.630914 
L 118.1629 139.83953 
L 118.344177 150.334158 
L 118.525453 139.103861 
L 118.70673 149.798416 
L 118.888007 131.911096 
L 119.069284 139.600583 
L 119.25056 138.87191 
L 119.431837 133.447031 
L 119.613114 135.732471 
L 119.975667 153.290392 
L 120.156944 144.176731 
L 120.338221 143.753751 
L 120.519498 142.75244 
L 120.700774 140.865131 
L 121.063328 115.896935 
L 121.244604 115.891233 
L 121.607158 130.072359 
L 121.788435 128.009888 
L 121.969711 134.568389 
L 122.150988 145.343607 
L 122.332265 149.019459 
L 122.513542 125.977806 
L 122.694818 121.704545 
L 123.057372 109.095305 
L 123.419925 134.504329 
L 123.782479 123.425964 
L 123.963755 118.119919 
L 124.145032 126.174021 
L 124.326309 128.323372 
L 124.507586 115.241981 
L 124.688862 135.55005 
L 124.870139 134.770276 
L 125.232693 148.246911 
L 125.413969 132.069428 
L 125.595246 133.608196 
L 125.776523 128.306032 
L 125.9578 132.454379 
L 126.320353 152.893066 
L 126.50163 149.842999 
L 126.682906 138.051941 
L 126.864183 140.004947 
L 127.04546 155.482577 
L 127.408013 125.36473 
L 127.58929 133.688696 
L 127.951844 116.042214 
L 128.13312 119.839657 
L 128.314397 114.504321 
L 128.495674 120.373453 
L 128.676951 130.676201 
L 129.039504 169.157905 
L 129.220781 154.345665 
L 129.402058 153.189612 
L 129.583334 164.300458 
L 129.945888 149.284194 
L 130.308441 140.480526 
L 130.670995 109.49503 
L 130.852271 117.07103 
L 131.033548 116.764689 
L 131.214825 124.493549 
L 131.396102 144.260144 
L 131.577378 140.963182 
L 131.758655 142.136355 
L 131.939932 112.165244 
L 132.302485 116.528534 
L 132.665039 125.157026 
L 132.846315 124.489949 
L 133.027592 126.488135 
L 133.208869 110.737409 
L 133.390146 115.343347 
L 133.752699 132.677363 
L 133.933976 124.669206 
L 134.115253 129.533663 
L 134.296529 121.301991 
L 134.477806 120.313127 
L 134.659083 122.384784 
L 134.84036 122.211772 
L 135.021636 117.514689 
L 135.202913 117.192657 
L 135.38419 120.061775 
L 135.565466 138.152155 
L 135.746743 141.290944 
L 135.92802 116.817054 
L 136.109297 126.478688 
L 136.290573 106.642771 
L 136.653127 101.203698 
L 137.01568 93.935937 
L 137.196957 90.364934 
L 137.559511 103.356131 
L 137.740787 93.288053 
L 137.922064 97.786373 
L 138.103341 106.871595 
L 138.284617 90.695758 
L 138.465894 98.604572 
L 138.647171 111.557526 
L 138.828448 134.570717 
L 139.009724 139.520532 
L 139.191001 131.481691 
L 139.372278 139.145981 
L 139.553555 129.091457 
L 139.734831 125.243761 
L 139.916108 131.29528 
L 140.097385 129.582191 
L 140.278662 131.08142 
L 140.459938 140.050813 
L 140.641215 139.518284 
L 140.822492 144.620045 
L 141.003768 155.270154 
L 141.728875 103.39634 
L 141.910152 70.473574 
L 142.091429 78.51162 
L 142.272706 104.115533 
L 142.453982 104.174859 
L 142.635259 86.606971 
L 142.997813 88.479191 
L 143.179089 81.976401 
L 144.085473 116.11417 
L 144.448026 168.791419 
L 144.629303 150.305687 
L 144.81058 158.179786 
L 145.173133 138.291736 
L 145.716964 154.55373 
L 145.89824 158.366502 
L 146.079517 153.888888 
L 146.260794 173.040843 
L 146.44207 170.71384 
L 146.623347 161.446995 
L 146.804624 165.298572 
L 146.985901 171.891415 
L 147.348454 153.01786 
L 147.529731 154.493649 
L 147.711008 152.278225 
L 147.892284 147.854268 
L 148.073561 150.150195 
L 148.254838 149.204305 
L 148.436115 151.522259 
L 148.798668 175.305352 
L 148.979945 164.177848 
L 149.161222 165.987744 
L 149.342498 146.585509 
L 149.886328 131.964857 
L 150.067605 136.403152 
L 150.248882 132.765756 
L 150.430159 122.120358 
L 150.792712 139.725789 
L 150.973989 139.405727 
L 151.155266 132.899487 
L 151.336542 143.31541 
L 151.517819 135.712175 
L 151.699096 143.783696 
L 151.880373 158.452458 
L 152.061649 162.137287 
L 152.242926 159.682104 
L 152.424203 153.496976 
L 152.605479 157.855138 
L 152.786756 142.200389 
L 153.14931 135.850277 
L 153.511863 142.668622 
L 153.69314 129.3459 
L 154.055693 128.175211 
L 154.23697 125.699057 
L 154.418247 128.040614 
L 154.599524 139.600188 
L 154.7808 137.147069 
L 154.962077 116.440403 
L 155.32463 150.264948 
L 155.687184 153.803036 
L 155.868461 157.304118 
L 156.049737 151.272287 
L 156.231014 155.456637 
L 156.412291 155.598939 
L 156.593568 148.610837 
L 156.956121 158.460962 
L 157.137398 165.188409 
L 157.318675 182.841889 
L 157.681228 194.571525 
L 157.862505 183.94006 
L 158.406335 137.986528 
L 158.950165 155.654385 
L 159.131442 157.522825 
L 159.493995 147.303353 
L 159.675272 167.449131 
L 160.219102 144.918577 
L 160.400379 143.999229 
L 160.581656 133.368243 
L 160.762932 135.128486 
L 160.944209 138.971098 
L 161.125486 138.932399 
L 161.306763 134.202986 
L 161.488039 140.15313 
L 161.669316 115.052444 
L 161.850593 133.748174 
L 162.03187 137.542624 
L 162.213146 133.727179 
L 162.756977 102.904631 
L 162.938253 97.753464 
L 163.11953 110.679334 
L 163.300807 108.758277 
L 163.482083 120.139585 
L 163.66336 109.616196 
L 163.844637 121.436471 
L 164.20719 167.902785 
L 164.388467 162.4362 
L 164.751021 143.942177 
L 165.294851 149.154658 
L 165.476128 155.155674 
L 165.657404 155.874686 
L 165.838681 165.581068 
L 166.019958 149.635745 
L 166.201235 145.707963 
L 166.745065 125.81172 
L 167.107618 120.655689 
L 167.288895 119.123606 
L 167.470172 119.468744 
L 167.651448 123.21873 
L 167.832725 129.565157 
L 168.014002 105.655809 
L 168.195279 103.651464 
L 168.376555 107.803824 
L 168.557832 106.229297 
L 168.739109 133.437053 
L 168.920386 133.906148 
L 169.282939 117.872194 
L 169.826769 131.256451 
L 170.008046 144.886827 
L 170.189323 144.887878 
L 170.370599 144.732081 
L 170.733153 180.925487 
L 170.91443 167.413087 
L 171.276983 132.903114 
L 171.45826 129.204372 
L 171.639537 117.399262 
L 171.820813 123.385049 
L 172.00209 118.127772 
L 172.183367 120.812705 
L 172.54592 144.184151 
L 172.727197 136.687491 
L 173.08975 161.214817 
L 173.271027 152.786961 
L 173.633581 120.927149 
L 173.814857 120.209979 
L 173.996134 123.80577 
L 174.358688 120.970673 
L 174.539964 117.388475 
L 174.902518 152.163862 
L 175.265071 145.631585 
L 175.446348 131.410603 
L 175.808901 151.660888 
L 176.352732 142.233732 
L 176.896562 117.218272 
L 177.077839 135.84786 
L 177.259115 115.741828 
L 177.440392 125.169426 
L 177.621669 122.798354 
L 177.802945 101.87067 
L 177.984222 112.031329 
L 178.346776 117.906119 
L 178.528052 82.592823 
L 178.890606 104.821378 
L 179.071883 103.674715 
L 179.253159 97.825391 
L 179.434436 115.529835 
L 179.615713 109.450282 
L 179.79699 112.385087 
L 180.159543 123.442698 
L 180.522096 115.131249 
L 180.88465 134.362321 
L 181.247203 90.052088 
L 182.153587 121.383071 
L 182.334864 104.457749 
L 182.516141 103.937031 
L 182.697417 107.809956 
L 183.059971 105.145669 
L 183.241247 83.47819 
L 183.422524 80.259481 
L 183.603801 101.324602 
L 183.966354 108.7455 
L 184.147631 106.398401 
L 184.328908 99.250297 
L 184.510185 105.086005 
L 184.691461 105.04348 
L 185.235292 127.306959 
L 185.416568 135.748653 
L 185.597845 117.824144 
L 186.141675 137.389915 
L 186.322952 132.568412 
L 186.504229 123.432955 
L 186.685505 126.028525 
L 186.866782 125.737377 
L 187.048059 128.859255 
L 187.229336 135.557486 
L 187.410612 130.542724 
L 187.591889 110.271567 
L 187.773166 118.537534 
L 187.954443 117.944431 
L 188.135719 121.25754 
L 188.316996 118.194707 
L 188.498273 121.42123 
L 188.67955 122.14582 
L 188.860826 124.9411 
L 189.22338 143.621787 
L 189.404656 140.726582 
L 189.585933 152.94533 
L 189.76721 134.898756 
L 189.948487 151.117517 
L 190.129763 151.816473 
L 190.31104 138.421081 
L 190.492317 138.625709 
L 190.673594 140.555094 
L 191.036147 160.849919 
L 191.217424 164.574066 
L 191.579977 181.833888 
L 191.761254 179.388666 
L 191.942531 173.905194 
L 192.123807 164.088144 
L 192.305084 145.997345 
L 192.486361 145.465901 
L 192.667638 133.371469 
L 192.848914 145.938268 
L 193.030191 131.191277 
L 193.211468 132.65777 
L 193.392745 130.719926 
L 193.574021 135.932277 
L 193.755298 134.96457 
L 193.936575 137.848205 
L 194.117852 137.810725 
L 194.299128 129.409311 
L 194.480405 128.130379 
L 194.661682 145.690551 
L 194.842958 144.121803 
L 195.205512 132.869863 
L 195.386789 130.771833 
L 195.568065 125.449362 
L 195.749342 126.310198 
L 195.930619 127.741119 
L 196.111896 126.29192 
L 196.293172 117.928283 
L 196.474449 114.833777 
L 196.837003 127.860351 
L 197.018279 126.312181 
L 197.199556 114.256336 
L 197.380833 111.442753 
L 197.562109 102.709259 
L 197.743386 99.493964 
L 198.64977 144.609326 
L 198.831047 178.984647 
L 199.1936 146.435406 
L 199.374877 156.83781 
L 199.556154 146.421754 
L 199.73743 147.706537 
L 199.918707 144.318624 
L 200.099984 149.872614 
L 200.28126 159.81695 
L 200.643814 150.090354 
L 200.825091 149.0881 
L 201.187644 165.563066 
L 201.550198 163.469169 
L 201.912751 152.455287 
L 202.094028 143.005854 
L 202.275305 139.487218 
L 202.456581 130.221054 
L 202.637858 131.160045 
L 202.819135 125.400373 
L 203.000412 144.232752 
L 203.181688 180.362477 
L 203.362965 168.61449 
L 203.544242 172.090607 
L 203.906795 153.694744 
L 204.088072 155.089429 
L 204.269349 150.536914 
L 204.450625 134.765702 
L 204.631902 134.535894 
L 204.813179 150.31736 
L 204.994456 144.450849 
L 205.357009 129.553816 
L 205.538286 146.26007 
L 205.719563 141.943623 
L 205.900839 131.254882 
L 206.082116 141.95193 
L 206.444669 130.443701 
L 206.807223 153.145618 
L 206.9885 144.992338 
L 207.169776 157.736296 
L 207.53233 144.365041 
L 207.713607 154.870838 
L 207.894883 153.890782 
L 208.257437 140.023256 
L 208.438714 124.943307 
L 208.61999 119.401139 
L 208.801267 125.79893 
L 208.982544 127.398698 
L 209.16382 131.630734 
L 209.526374 155.631636 
L 209.707651 177.702484 
L 209.888927 177.54277 
L 210.251481 157.471043 
L 210.614034 162.73472 
L 210.795311 161.513377 
L 211.157865 187.199341 
L 211.339141 159.569767 
L 211.520418 166.157301 
L 211.701695 134.872289 
L 211.882971 130.382838 
L 212.064248 139.873467 
L 212.245525 141.670689 
L 212.426802 148.681946 
L 212.608078 150.602012 
L 212.789355 150.445821 
L 212.970632 149.405412 
L 213.151909 139.24682 
L 213.333185 150.144705 
L 213.514462 144.17828 
L 213.695739 120.562176 
L 214.239569 174.210231 
L 214.420846 174.155089 
L 214.602122 155.515029 
L 215.145953 139.9228 
L 215.327229 115.644495 
L 215.508506 106.442286 
L 215.87106 135.341592 
L 216.052336 124.80745 
L 216.233613 130.034526 
L 216.41489 149.152294 
L 216.596167 145.612829 
L 216.95872 124.289722 
L 217.139997 119.253034 
L 217.321273 147.390048 
L 217.683827 129.12783 
L 218.04638 151.290614 
L 218.227657 153.346059 
L 218.408934 158.03734 
L 218.590211 135.582665 
L 219.134041 126.534853 
L 219.315318 134.738657 
L 219.496594 149.735999 
L 219.677871 146.938271 
L 219.859148 140.105761 
L 220.221701 160.228449 
L 220.402978 154.492854 
L 220.584255 137.471368 
L 220.946808 170.283195 
L 221.309362 157.983374 
L 221.490638 169.641159 
L 221.671915 167.97397 
L 221.853192 147.479182 
L 222.034469 148.047935 
L 222.215745 145.59638 
L 222.397022 152.588419 
L 222.578299 142.132221 
L 222.759576 113.6308 
L 223.484682 146.589076 
L 223.665959 140.002934 
L 223.847236 138.528405 
L 224.028513 131.819598 
L 224.391066 93.981001 
L 225.116173 155.302955 
L 225.478727 174.555818 
L 225.84128 155.171934 
L 226.022557 158.472334 
L 226.203833 158.08527 
L 226.38511 158.753763 
L 226.566387 154.344317 
L 226.747664 136.714765 
L 227.110217 162.435694 
L 227.291494 165.78258 
L 227.472771 173.598753 
L 227.654047 166.863464 
L 227.835324 168.76867 
L 228.016601 165.157586 
L 228.379154 180.542135 
L 228.560431 184.209045 
L 228.741708 175.940282 
L 228.922984 172.92751 
L 229.104261 182.921064 
L 229.285538 166.858098 
L 229.466815 161.666834 
L 229.648091 148.939526 
L 229.829368 147.847045 
L 230.010645 151.584968 
L 230.191922 162.10469 
L 230.373198 159.858612 
L 231.098305 108.636542 
L 231.279582 128.039146 
L 231.460859 130.741575 
L 231.642135 119.180056 
L 232.004689 131.636501 
L 232.185966 125.54062 
L 232.367242 123.852769 
L 232.911073 152.033398 
L 233.092349 153.931895 
L 233.273626 157.524579 
L 233.454903 154.449258 
L 233.817456 193.109946 
L 233.998733 187.863757 
L 234.361286 172.572978 
L 234.542563 164.301441 
L 234.72384 162.529307 
L 234.905117 152.829446 
L 235.086393 156.247705 
L 235.26767 156.628766 
L 235.448947 182.475953 
L 235.8115 119.937491 
L 235.992777 122.023134 
L 236.174054 131.951682 
L 236.355331 149.241453 
L 236.536607 136.999142 
L 236.899161 148.105745 
L 237.080437 140.168796 
L 237.261714 139.996484 
L 237.442991 153.865449 
L 237.624268 142.857891 
L 237.805544 156.361511 
L 237.986821 159.513097 
L 238.168098 158.307958 
L 238.530651 144.010714 
L 238.711928 150.748984 
L 238.893205 148.484346 
L 239.255758 135.102348 
L 239.437035 135.82947 
L 239.799588 123.128484 
L 239.980865 127.153281 
L 240.162142 126.515462 
L 240.343419 120.07938 
L 240.705972 152.811207 
L 241.249802 127.58407 
L 241.431079 132.693774 
L 241.612356 142.85025 
L 241.793633 144.381189 
L 241.974909 131.601954 
L 242.156186 146.160831 
L 242.337463 170.868108 
L 242.700016 159.897224 
L 242.881293 160.875365 
L 243.425123 141.295804 
L 243.6064 151.97601 
L 243.787677 139.262327 
L 243.968953 149.263359 
L 244.15023 129.415865 
L 244.331507 144.540497 
L 244.512784 142.366591 
L 244.875337 165.238916 
L 245.056614 169.927476 
L 245.237891 181.063571 
L 245.419167 183.138684 
L 246.144274 146.237742 
L 246.325551 102.763646 
L 246.506828 102.339233 
L 246.688104 108.963617 
L 247.050658 140.695349 
L 247.231935 141.125476 
L 247.413211 118.846539 
L 247.957042 138.823356 
L 248.138318 133.711862 
L 248.319595 132.299434 
L 248.863425 117.952745 
L 249.044702 118.291258 
L 249.225979 122.612051 
L 249.407255 138.023548 
L 249.588532 132.627116 
L 249.769809 134.937672 
L 249.951086 140.726249 
L 250.132362 138.306357 
L 250.313639 139.105318 
L 250.676193 159.536661 
L 250.857469 163.644012 
L 251.220023 176.336772 
L 251.401299 178.140853 
L 252.126406 136.508391 
L 252.307683 151.056613 
L 252.48896 150.339471 
L 252.851513 163.78598 
L 253.214067 145.548964 
L 253.395344 154.467689 
L 253.57662 127.603678 
L 253.757897 127.9862 
L 253.939174 143.727298 
L 254.12045 137.955159 
L 254.301727 137.180609 
L 254.483004 132.883411 
L 254.664281 121.587842 
L 255.026834 155.987059 
L 255.208111 143.98729 
L 255.570664 107.822011 
L 255.751941 105.877542 
L 255.933218 113.809038 
L 256.114495 129.221098 
L 256.295771 134.092173 
L 256.477048 133.965405 
L 256.839601 144.243891 
L 257.020878 145.305758 
L 257.202155 143.205533 
L 257.383432 135.615371 
L 257.564708 158.915399 
L 257.745985 154.090212 
L 257.927262 140.30635 
L 258.108539 140.072984 
L 258.289815 139.444872 
L 258.471092 140.951778 
L 258.833646 119.195698 
L 259.014922 124.481049 
L 259.196199 114.440123 
L 259.740029 129.206949 
L 260.102583 104.37408 
L 260.465136 127.132619 
L 260.646413 123.039317 
L 260.82769 136.794642 
L 261.190243 118.978869 
L 261.37152 127.760153 
L 261.552797 113.596647 
L 261.734073 116.708661 
L 261.91535 105.99886 
L 262.096627 102.501695 
L 262.277904 92.908994 
L 262.45918 97.182415 
L 262.640457 131.034405 
L 263.00301 147.493179 
L 263.184287 144.946402 
L 263.546841 124.354859 
L 263.909394 150.667771 
L 264.090671 123.452658 
L 264.634501 147.066439 
L 264.815778 139.585222 
L 264.997055 148.521462 
L 265.359608 135.868268 
L 265.722161 141.492211 
L 265.903438 146.734179 
L 266.084715 142.892165 
L 266.265992 112.97435 
L 266.447268 105.38243 
L 266.991099 132.660415 
L 267.172375 124.308109 
L 267.353652 123.270179 
L 267.534929 134.469074 
L 267.716206 136.66959 
L 267.897482 127.189775 
L 268.078759 141.420958 
L 268.260036 146.473737 
L 268.441312 146.798281 
L 268.622589 148.33125 
L 268.803866 167.76867 
L 268.985143 162.187055 
L 269.347696 141.924991 
L 269.891526 132.079139 
L 270.072803 134.051413 
L 270.435357 182.144567 
L 270.616633 159.099868 
L 270.979187 152.977012 
L 271.160463 152.331236 
L 271.34174 150.16304 
L 271.523017 150.30852 
L 271.704294 149.969221 
L 271.88557 160.318406 
L 272.066847 162.5358 
L 272.248124 152.306003 
L 272.429401 152.586051 
L 272.610677 120.605002 
L 272.791954 125.647102 
L 272.973231 141.849797 
L 273.154508 143.784791 
L 273.335784 160.16149 
L 273.517061 159.256845 
L 273.698338 161.445025 
L 273.879614 165.308419 
L 274.242168 144.22182 
L 274.423445 130.227266 
L 274.604721 132.840766 
L 274.785998 129.791067 
L 274.967275 106.662201 
L 275.148552 116.819903 
L 275.329828 141.229876 
L 275.511105 141.307919 
L 275.692382 143.004763 
L 275.873659 139.368626 
L 276.054935 151.398019 
L 276.236212 154.135088 
L 276.417489 145.283703 
L 276.598765 151.821653 
L 276.780042 115.607312 
L 276.961319 109.534096 
L 277.142596 128.6592 
L 277.323872 118.98862 
L 277.505149 116.18023 
L 277.686426 101.503995 
L 277.867703 98.803006 
L 278.048979 101.985616 
L 278.230256 94.970142 
L 278.411533 99.889813 
L 278.955363 147.901677 
L 279.13664 137.573743 
L 279.317917 146.191706 
L 279.499193 133.569495 
L 279.68047 132.530874 
L 279.861747 137.565135 
L 280.2243 109.820838 
L 280.405577 109.644591 
L 280.586854 116.12606 
L 281.130684 151.53819 
L 281.311961 121.884111 
L 281.493237 127.536128 
L 281.674514 137.653283 
L 282.037068 110.365738 
L 282.218344 121.7191 
L 282.580898 113.78862 
L 282.762174 115.939524 
L 283.306005 152.414664 
L 283.487281 158.816782 
L 283.668558 174.073198 
L 283.849835 173.08246 
L 284.031112 149.714161 
L 284.212388 153.67281 
L 284.756219 114.936968 
L 284.937495 119.004234 
L 285.118772 115.419632 
L 285.300049 126.640886 
L 285.481325 122.554606 
L 285.662602 131.361372 
L 285.843879 132.091797 
L 286.025156 131.773072 
L 286.206432 128.855386 
L 286.387709 129.413605 
L 286.750263 143.247712 
L 286.931539 147.997007 
L 287.112816 148.51541 
L 287.294093 149.83204 
L 287.47537 138.019291 
L 287.656646 151.389881 
L 287.837923 146.369281 
L 288.200476 113.944906 
L 288.381753 103.371885 
L 288.744307 123.770324 
L 289.10686 143.156258 
L 289.288137 147.793605 
L 289.65069 133.531146 
L 289.831967 133.689524 
L 290.013244 139.997535 
L 290.194521 124.481651 
L 290.557074 154.5482 
L 290.919627 142.813115 
L 291.282181 151.25648 
L 291.463458 157.627742 
L 291.644734 148.785707 
L 291.826011 128.523876 
L 292.007288 132.049033 
L 292.188565 157.521718 
L 292.369841 150.189638 
L 292.551118 138.304061 
L 292.732395 142.060944 
L 292.913672 140.024716 
L 293.094948 159.95517 
L 293.276225 159.310012 
L 293.457502 162.229218 
L 293.638778 145.708766 
L 294.182609 163.08428 
L 294.363885 130.659098 
L 294.726439 193.131696 
L 295.088992 172.092894 
L 295.451546 161.644005 
L 295.632823 160.839462 
L 295.814099 156.983278 
L 295.995376 142.656234 
L 296.176653 146.458769 
L 296.35793 145.12852 
L 296.539206 137.423359 
L 296.720483 135.189861 
L 297.083036 112.468551 
L 297.626867 140.949362 
L 297.98942 130.899343 
L 298.170697 129.720412 
L 298.53325 153.364101 
L 298.714527 152.197642 
L 299.077081 121.848821 
L 299.258357 140.67014 
L 299.439634 130.059185 
L 299.802187 144.611658 
L 299.983464 133.780352 
L 300.164741 135.341938 
L 300.346018 125.784576 
L 300.527294 123.076477 
L 300.708571 111.4028 
L 300.889848 113.412278 
L 301.071125 108.35923 
L 301.433678 83.703475 
L 301.614955 120.526016 
L 301.796232 127.121668 
L 302.158785 119.087743 
L 302.521338 122.396731 
L 302.883892 157.220658 
L 303.065169 145.831982 
L 303.246445 117.312591 
L 303.427722 117.919394 
L 303.608999 140.322855 
L 303.971552 152.77843 
L 304.152829 146.401056 
L 304.515383 151.657602 
L 304.877936 141.243375 
L 305.059213 124.670418 
L 305.240489 138.084939 
L 305.421766 138.976109 
L 305.603043 137.040025 
L 305.78432 126.741236 
L 305.965596 157.213639 
L 306.32815 142.647827 
L 306.509427 139.623077 
L 306.690703 144.318275 
L 306.87198 124.198464 
L 307.053257 125.285788 
L 307.234534 131.325866 
L 307.597087 103.009007 
L 307.778364 97.433182 
L 308.140917 126.843152 
L 308.322194 127.728595 
L 308.503471 117.143387 
L 308.684747 114.586538 
L 308.866024 120.256858 
L 309.228578 138.755713 
L 309.409854 146.92181 
L 309.591131 134.084343 
L 309.772408 129.878316 
L 309.953685 139.054652 
L 310.134961 135.520473 
L 310.497515 115.971134 
L 310.678791 111.777634 
L 310.860068 115.696414 
L 311.041345 122.05059 
L 311.222622 119.691428 
L 311.766452 61.696713 
L 311.947729 80.168147 
L 312.129005 77.204016 
L 312.310282 81.172938 
L 312.854112 114.957077 
L 313.035389 107.104933 
L 313.216666 107.484232 
L 313.397942 113.07021 
L 313.579219 101.749537 
L 313.760496 101.886826 
L 313.941773 100.392188 
L 314.304326 62.052417 
L 314.66688 107.856722 
L 315.21071 126.902519 
L 315.573263 151.141229 
L 315.75454 154.108507 
L 315.935817 149.528391 
L 316.117094 137.834965 
L 316.29837 109.157236 
L 316.479647 135.047549 
L 316.660924 120.368297 
L 316.8422 142.763997 
L 317.204754 137.752004 
L 317.386031 154.375288 
L 317.748584 133.195636 
L 318.111138 155.426653 
L 318.292414 153.506519 
L 318.473691 124.332054 
L 318.654968 113.773194 
L 319.198798 117.156236 
L 319.380075 121.174545 
L 319.561351 117.370329 
L 319.923905 138.903884 
L 320.286458 124.430643 
L 320.467735 148.503709 
L 320.649012 130.123388 
L 320.830289 129.958734 
L 321.011565 125.510439 
L 321.374119 132.199279 
L 321.555396 123.460471 
L 322.099226 146.687862 
L 322.280502 137.128966 
L 322.461779 136.466292 
L 322.824333 117.797819 
L 323.186886 114.451423 
L 323.54944 135.643808 
L 323.730716 139.403148 
L 323.911993 125.113101 
L 324.09327 124.839586 
L 324.455823 148.836836 
L 324.6371 144.64586 
L 324.818377 123.879968 
L 324.999653 153.58089 
L 325.18093 147.220258 
L 325.362207 167.478292 
L 325.543484 159.977269 
L 325.72476 160.085152 
L 325.906037 164.839122 
L 326.268591 132.442473 
L 326.449867 120.270875 
L 326.631144 142.600704 
L 326.993698 130.15157 
L 327.537528 149.413281 
L 327.718804 148.845861 
L 328.262635 122.865306 
L 328.443911 122.620699 
L 328.625188 114.115716 
L 328.806465 120.70837 
L 328.987742 118.741016 
L 329.350295 97.008869 
L 329.531572 122.055201 
L 329.712849 117.045203 
L 329.894125 101.64653 
L 330.075402 113.928939 
L 330.256679 115.437125 
L 330.437955 115.081369 
L 330.619232 122.844125 
L 330.800509 120.895989 
L 330.981786 121.99217 
L 331.344339 127.81281 
L 331.525616 127.204157 
L 331.706893 116.663271 
L 331.888169 119.366335 
L 332.069446 128.585623 
L 332.250723 130.704444 
L 332.794553 154.499411 
L 332.97583 138.891552 
L 333.157107 134.822156 
L 333.51966 158.146495 
L 333.700937 145.149592 
L 333.882213 121.437097 
L 334.06349 118.596592 
L 334.426044 129.988241 
L 334.788597 145.233638 
L 335.151151 145.555003 
L 335.332427 143.487648 
L 335.513704 138.496782 
L 335.694981 151.593439 
L 335.876258 132.91725 
L 336.057534 126.616174 
L 336.238811 141.608654 
L 336.420088 132.689649 
L 336.601364 129.446916 
L 336.782641 144.116983 
L 336.963918 140.887856 
L 337.145195 144.274787 
L 337.507748 112.292846 
L 338.051578 160.669523 
L 338.232855 169.344601 
L 338.595409 159.203361 
L 338.776685 161.073518 
L 338.957962 159.53764 
L 339.139239 162.477677 
L 339.320515 155.203636 
L 339.501792 163.071635 
L 339.683069 162.967424 
L 339.864346 144.67342 
L 340.045622 167.283763 
L 340.226899 174.843635 
L 340.408176 151.40511 
L 340.589453 145.485548 
L 340.770729 147.771871 
L 340.952006 159.499405 
L 341.133283 154.322491 
L 341.31456 157.535161 
L 341.495836 155.743283 
L 341.677113 156.254675 
L 341.85839 156.011859 
L 342.039666 160.709074 
L 342.40222 110.875766 
L 342.764773 135.012922 
L 342.94605 133.545951 
L 343.127327 134.023891 
L 343.308604 135.187845 
L 343.671157 144.348861 
L 343.852434 155.128771 
L 344.214987 145.322086 
L 344.396264 146.629851 
L 344.577541 143.05799 
L 344.758817 149.865572 
L 344.940094 150.632935 
L 345.121371 150.346281 
L 345.483924 137.90528 
L 345.665201 140.188524 
L 345.846478 149.435408 
L 346.209031 178.143903 
L 346.390308 181.945005 
L 346.571585 149.053529 
L 346.752862 144.789305 
L 346.934138 144.273491 
L 347.115415 137.825068 
L 347.477968 156.0994 
L 347.659245 136.094284 
L 348.021799 132.623793 
L 348.203075 134.08628 
L 348.384352 111.662206 
L 348.565629 108.469276 
L 348.746906 111.789488 
L 349.109459 129.556055 
L 349.290736 108.528378 
L 349.472013 134.089035 
L 349.653289 136.032415 
L 350.015843 142.224189 
L 350.378396 136.847011 
L 350.559673 131.43897 
L 350.74095 154.903828 
L 350.922226 158.70989 
L 351.103503 147.942653 
L 351.28478 120.895006 
L 351.466057 127.913217 
L 351.647333 152.680427 
L 352.009887 125.691204 
L 352.191164 119.834135 
L 352.37244 120.9566 
L 352.553717 121.003234 
L 352.734994 131.846504 
L 352.916271 132.320009 
L 353.278824 79.891818 
L 353.460101 73.699828 
L 354.185208 146.547298 
L 354.366484 148.933715 
L 354.729038 164.347177 
L 354.910315 169.320757 
L 355.091591 156.799764 
L 355.272868 161.947151 
L 355.454145 163.449643 
L 355.635422 159.85116 
L 355.816698 152.56067 
L 356.179252 157.384175 
L 356.360528 150.596153 
L 356.541805 151.609515 
L 356.723082 145.994412 
L 356.904359 147.683828 
L 357.085635 147.463171 
L 357.266912 138.582245 
L 357.448189 145.837383 
L 357.629466 138.217955 
L 357.810742 104.235843 
L 357.992019 94.007206 
L 358.173296 121.491488 
L 358.535849 135.2108 
L 358.717126 130.697285 
L 359.079679 139.71581 
L 359.260956 118.014079 
L 359.442233 138.017062 
L 359.62351 118.900693 
L 359.804786 69.109749 
L 359.986063 80.216061 
L 360.16734 103.753448 
L 360.529893 110.333366 
L 360.71117 111.292028 
L 361.073724 136.322415 
L 361.255 135.465451 
L 361.617554 144.741291 
L 361.79883 137.91986 
L 361.980107 139.419576 
L 362.342661 161.029212 
L 362.523937 153.051676 
L 362.886491 176.002686 
L 363.067768 173.41684 
L 363.249044 163.269379 
L 363.430321 163.385589 
L 363.611598 171.671712 
L 363.792875 166.267604 
L 363.974151 184.883935 
L 364.155428 169.45856 
L 364.336705 134.273589 
L 364.699258 158.718779 
L 364.880535 157.922711 
L 365.061812 162.731096 
L 365.243088 163.834492 
L 365.424365 149.498901 
L 365.605642 144.814173 
L 365.968195 121.439429 
L 366.149472 113.693691 
L 366.330749 72.912577 
L 366.512026 65.36238 
L 366.874579 82.583553 
L 367.418409 134.010248 
L 367.599686 138.101463 
L 367.780963 148.584372 
L 368.324793 112.334865 
L 368.50607 123.613351 
L 368.687346 143.699786 
L 368.868623 142.999618 
L 369.0499 130.141369 
L 369.231177 144.472209 
L 369.412453 148.608185 
L 369.59373 148.148161 
L 369.775007 158.236002 
L 369.956284 161.471911 
L 370.13756 140.651287 
L 370.318837 142.613224 
L 370.500114 133.016697 
L 370.68139 54.434562 
L 370.862667 74.308626 
L 371.043944 109.429419 
L 371.225221 117.03288 
L 371.406497 145.696237 
L 371.587774 148.980911 
L 371.769051 147.50775 
L 371.950328 153.083543 
L 372.131604 147.182292 
L 372.312881 116.750648 
L 372.856711 83.341511 
L 373.037988 98.682386 
L 373.219265 87.610638 
L 373.400541 110.575296 
L 373.581818 114.54382 
L 373.581818 114.54382 
" style="fill:none;stroke:#ffa500;stroke-linecap:square;stroke-width:0.5;"/>
   </g>
   <g id="line2d_15">
    <path clip-path="url(#p06d7547208)" d="M 69.218182 128.501103 
L 69.399459 125.093498 
L 69.580735 134.658375 
L 69.762012 134.261269 
L 69.943289 134.163898 
L 70.124565 109.007803 
L 70.305842 114.506681 
L 70.487119 112.171364 
L 70.668396 106.428213 
L 70.849672 112.023881 
L 71.212226 100.48916 
L 71.393503 108.569847 
L 71.574779 107.667474 
L 71.756056 99.915869 
L 71.937333 69.295065 
L 72.11861 61.523997 
L 72.481163 139.557579 
L 72.66244 140.836258 
L 72.843716 159.958686 
L 73.024993 162.775391 
L 73.20627 172.459441 
L 73.387547 168.469239 
L 73.7501 151.268695 
L 73.931377 152.359908 
L 74.112654 151.999991 
L 74.475207 119.335203 
L 74.656484 114.586971 
L 75.019037 124.523257 
L 75.381591 142.000987 
L 75.562868 144.680832 
L 75.744144 138.885981 
L 75.925421 118.435417 
L 76.106698 123.248197 
L 76.650528 100.002411 
L 76.831805 104.287477 
L 77.013081 104.453138 
L 77.194358 94.659985 
L 77.375635 98.68605 
L 77.556912 105.451328 
L 77.738188 100.475568 
L 77.919465 104.068228 
L 78.100742 119.017882 
L 78.282019 114.607846 
L 78.463295 82.635601 
L 78.644572 73.853643 
L 79.007125 132.287024 
L 79.188402 139.110139 
L 79.369679 130.927971 
L 79.550956 130.423982 
L 79.732232 144.053122 
L 79.913509 147.224556 
L 80.094786 146.014609 
L 80.276063 151.335498 
L 80.457339 142.153145 
L 80.638616 142.924072 
L 81.00117 112.248624 
L 81.545 118.77722 
L 81.726276 112.360865 
L 81.907553 121.387161 
L 82.270107 101.853347 
L 82.451383 99.570562 
L 82.63266 101.010789 
L 82.813937 92.607746 
L 82.995214 95.814778 
L 83.17649 96.79875 
L 83.720321 121.4455 
L 84.082874 139.708149 
L 84.264151 145.653933 
L 84.445427 143.094014 
L 84.626704 142.902739 
L 84.807981 149.023026 
L 84.989258 148.579982 
L 85.170534 159.948497 
L 85.351811 150.700159 
L 85.533088 154.650497 
L 85.714365 170.584027 
L 86.076918 181.676261 
L 86.258195 181.82827 
L 86.439472 190.808947 
L 86.620748 188.522957 
L 86.802025 168.292165 
L 86.983302 175.31349 
L 87.164578 160.253566 
L 87.345855 168.144462 
L 87.708409 127.710092 
L 87.889685 122.373657 
L 88.433516 158.148469 
L 88.614792 152.735448 
L 88.796069 139.206591 
L 88.977346 140.568887 
L 89.158623 150.385223 
L 89.521176 144.545858 
L 89.883729 124.21641 
L 90.065006 123.859494 
L 90.246283 125.836106 
L 90.608836 135.502469 
L 90.790113 133.849433 
L 90.97139 122.676671 
L 91.152667 136.57432 
L 91.333943 175.825793 
L 91.51522 162.747108 
L 91.877774 116.043041 
L 92.05905 114.980123 
L 92.240327 118.836254 
L 92.421604 127.011289 
L 92.602881 114.180355 
L 92.784157 115.870972 
L 92.965434 124.979748 
L 93.146711 112.774306 
L 93.327987 111.655084 
L 93.509264 106.290458 
L 93.690541 96.341022 
L 93.871818 114.612413 
L 94.053094 117.403182 
L 94.234371 122.370069 
L 94.415648 133.483174 
L 94.596925 126.775739 
L 94.778201 127.842088 
L 94.959478 131.552443 
L 95.140755 127.396106 
L 95.503308 176.627427 
L 95.684585 169.267674 
L 95.865862 137.015396 
L 96.228415 163.927981 
L 96.409692 165.766729 
L 96.590969 161.04369 
L 96.953522 163.142005 
L 97.134799 163.619906 
L 97.316076 167.809919 
L 97.497352 156.681002 
L 97.678629 173.720022 
L 97.859906 168.549513 
L 98.041183 159.682602 
L 98.403736 134.089064 
L 98.766289 123.695981 
L 98.947566 121.613131 
L 99.128843 110.471205 
L 99.31012 124.451819 
L 99.491396 123.478192 
L 99.672673 124.586275 
L 99.85395 126.474752 
L 100.216503 146.97202 
L 100.39778 137.819874 
L 100.579057 144.345482 
L 100.760334 140.810387 
L 100.94161 145.742691 
L 101.122887 143.541866 
L 101.48544 153.886689 
L 101.666717 148.864352 
L 102.029271 123.557198 
L 102.210547 112.57462 
L 102.391824 117.174812 
L 102.573101 118.067161 
L 102.754378 127.782268 
L 102.935654 126.245936 
L 103.116931 119.147932 
L 103.298208 130.077841 
L 103.660761 162.495711 
L 103.842038 161.398411 
L 104.023315 145.211695 
L 104.385868 178.707475 
L 104.567145 186.263893 
L 104.748422 164.979313 
L 104.929698 161.713717 
L 105.110975 150.291906 
L 105.292252 148.638093 
L 105.473529 151.873287 
L 105.654805 151.623055 
L 106.379912 145.915506 
L 106.561189 146.850641 
L 106.742466 123.044486 
L 106.923742 136.991905 
L 107.286296 125.64892 
L 107.648849 112.34682 
L 108.011403 128.190982 
L 108.19268 133.043064 
L 108.555233 108.016331 
L 108.73651 107.113689 
L 108.917787 113.151387 
L 109.28034 153.417802 
L 109.82417 180.228606 
L 110.005447 179.525666 
L 110.186724 182.828767 
L 110.368 181.556877 
L 110.549277 176.003838 
L 110.730554 179.632931 
L 111.093107 168.590938 
L 111.274384 174.924792 
L 111.455661 128.579588 
L 111.636938 122.172783 
L 111.818214 120.063629 
L 111.999491 121.941599 
L 112.180768 121.660367 
L 112.362045 128.104689 
L 112.543321 121.903774 
L 112.724598 121.963365 
L 113.087151 154.194355 
L 113.268428 136.266457 
L 113.449705 101.958035 
L 113.630982 97.016907 
L 113.812258 100.114664 
L 113.993535 108.599775 
L 114.174812 108.277391 
L 114.356089 112.082755 
L 114.718642 135.205377 
L 115.081196 116.227919 
L 115.262472 117.364189 
L 115.443749 140.959222 
L 115.625026 138.176967 
L 115.806302 139.725761 
L 116.168856 146.483509 
L 116.531409 155.652463 
L 116.712686 164.510915 
L 116.893963 166.682197 
L 117.07524 164.418 
L 117.256516 135.967581 
L 117.437793 136.102453 
L 117.61907 138.753444 
L 117.800347 138.707809 
L 117.981623 136.154589 
L 118.525453 113.795594 
L 118.70673 121.032645 
L 118.888007 118.25013 
L 119.069284 124.037146 
L 119.25056 122.484642 
L 119.431837 142.220397 
L 119.613114 136.944789 
L 119.794391 142.939674 
L 120.156944 121.771272 
L 120.338221 110.906063 
L 120.519498 114.978727 
L 120.700774 123.671129 
L 120.882051 125.26513 
L 121.063328 137.239456 
L 121.425881 137.661918 
L 121.607158 147.62475 
L 121.788435 171.692134 
L 121.969711 156.140874 
L 122.150988 161.786226 
L 122.332265 158.603143 
L 122.513542 152.511736 
L 122.694818 138.195742 
L 122.876095 143.520734 
L 123.057372 144.322199 
L 123.238649 156.928855 
L 123.419925 153.80495 
L 123.782479 137.069682 
L 123.963755 133.841355 
L 124.145032 133.685317 
L 124.326309 119.606659 
L 124.688862 131.083158 
L 124.870139 127.598942 
L 125.051416 120.18396 
L 125.595246 142.58633 
L 125.776523 131.735664 
L 125.9578 130.204922 
L 126.139076 136.862656 
L 126.320353 148.053995 
L 126.50163 143.182462 
L 126.682906 144.179629 
L 126.864183 149.117735 
L 127.04546 158.074134 
L 127.226737 159.813643 
L 127.408013 169.119181 
L 127.58929 170.26336 
L 127.770567 180.516292 
L 127.951844 166.922136 
L 128.13312 161.725178 
L 128.314397 149.554347 
L 128.495674 128.729546 
L 128.676951 144.114214 
L 128.858227 124.069811 
L 129.039504 125.719194 
L 129.220781 117.079301 
L 129.402058 117.627825 
L 129.583334 113.167768 
L 129.945888 96.946212 
L 130.127164 100.606505 
L 130.670995 58.746988 
L 130.852271 62.189056 
L 131.033548 115.574591 
L 131.214825 127.00925 
L 131.577378 117.196975 
L 131.758655 136.096824 
L 131.939932 136.933476 
L 132.302485 118.741345 
L 132.483762 121.271589 
L 132.665039 119.241554 
L 133.027592 150.26439 
L 133.208869 161.448347 
L 133.390146 153.861729 
L 133.752699 135.462331 
L 133.933976 136.282411 
L 134.115253 142.797208 
L 134.477806 120.944738 
L 134.659083 126.119537 
L 134.84036 116.207935 
L 135.021636 114.409898 
L 135.38419 90.594793 
L 135.565466 98.257195 
L 135.746743 99.046895 
L 135.92802 95.928504 
L 136.109297 77.570314 
L 136.290573 80.555352 
L 136.47185 80.763782 
L 136.653127 78.780405 
L 136.834404 65.945655 
L 137.01568 65.994813 
L 137.196957 77.690661 
L 137.378234 60.544006 
L 137.559511 70.011649 
L 137.922064 125.256964 
L 138.103341 128.906643 
L 138.284617 152.063435 
L 138.465894 154.407576 
L 138.647171 152.291079 
L 138.828448 163.636106 
L 139.009724 183.661645 
L 139.191001 179.859018 
L 139.372278 158.747194 
L 139.553555 158.431515 
L 139.916108 132.730688 
L 140.097385 134.783509 
L 140.459938 127.168731 
L 140.641215 131.7968 
L 140.822492 139.772645 
L 141.003768 136.844195 
L 141.185045 146.299525 
L 141.366322 139.254907 
L 141.547599 98.682021 
L 141.728875 96.244516 
L 141.910152 92.206536 
L 142.091429 83.917603 
L 142.272706 97.68701 
L 142.453982 90.59704 
L 142.635259 98.525554 
L 142.997813 80.111083 
L 143.179089 95.949302 
L 143.360366 83.593641 
L 143.541643 91.368441 
L 143.722919 85.057709 
L 144.26675 149.900672 
L 144.448026 158.036457 
L 144.629303 155.144522 
L 144.81058 160.51798 
L 144.991857 162.10912 
L 145.173133 173.514538 
L 145.35441 160.424259 
L 145.535687 168.837451 
L 145.716964 149.425007 
L 145.89824 152.680643 
L 146.079517 179.87511 
L 146.44207 161.227947 
L 146.623347 162.395874 
L 146.804624 150.346907 
L 147.348454 175.718111 
L 147.711008 164.231537 
L 147.892284 155.139991 
L 148.073561 153.004645 
L 148.436115 108.083752 
L 148.617391 106.695805 
L 148.798668 108.63925 
L 148.979945 105.486541 
L 149.161222 105.802986 
L 149.523775 98.545731 
L 149.705052 100.751431 
L 149.886328 96.049232 
L 150.067605 98.58968 
L 150.248882 90.442865 
L 150.430159 87.404495 
L 150.792712 136.468228 
L 150.973989 131.857082 
L 151.155266 121.511232 
L 151.336542 121.907417 
L 151.517819 121.519815 
L 151.880373 129.881907 
L 152.061649 129.146827 
L 152.242926 136.941051 
L 152.424203 135.103149 
L 152.605479 124.244211 
L 152.968033 158.078941 
L 153.14931 155.53279 
L 153.330586 154.872311 
L 153.511863 147.669265 
L 153.69314 153.021905 
L 153.874417 155.039295 
L 154.23697 152.239224 
L 154.599524 135.067342 
L 154.7808 135.853915 
L 155.32463 97.328405 
L 155.505907 102.577005 
L 155.868461 116.072768 
L 156.049737 112.626174 
L 156.231014 117.945374 
L 156.412291 114.865298 
L 156.593568 103.563931 
L 157.499951 146.279681 
L 157.681228 146.832696 
L 157.862505 145.302588 
L 158.043781 138.570921 
L 158.225058 124.695386 
L 158.406335 123.304863 
L 158.768888 140.110416 
L 158.950165 138.639445 
L 159.131442 135.507306 
L 159.312719 172.754133 
L 159.675272 168.061829 
L 159.856549 177.003637 
L 160.037826 179.714233 
L 160.219102 184.46872 
L 160.400379 184.462862 
L 160.581656 175.943681 
L 160.944209 180.426443 
L 161.125486 180.140884 
L 161.306763 173.024374 
L 161.488039 180.673156 
L 161.850593 166.572929 
L 162.03187 170.088995 
L 162.394423 182.911072 
L 162.5757 171.863116 
L 162.756977 153.634217 
L 162.938253 166.780457 
L 163.11953 164.496737 
L 163.300807 155.540306 
L 163.66336 99.75449 
L 164.025914 86.898749 
L 164.20719 84.84956 
L 164.388467 95.322154 
L 164.569744 92.054728 
L 164.751021 85.662213 
L 164.932297 83.615752 
L 165.113574 56.421551 
L 165.476128 71.292006 
L 165.838681 120.650913 
L 166.201235 135.0991 
L 166.382511 120.568223 
L 166.563788 127.638658 
L 166.745065 114.624327 
L 166.926341 120.00374 
L 167.107618 146.538385 
L 167.470172 126.752862 
L 167.651448 138.73625 
L 167.832725 130.658572 
L 168.014002 158.30728 
L 168.195279 165.375515 
L 168.376555 154.414627 
L 168.557832 153.744271 
L 168.920386 168.528682 
L 169.101662 166.472856 
L 169.282939 181.42393 
L 169.464216 179.175219 
L 169.826769 204.616103 
L 170.008046 197.590071 
L 170.189323 159.653601 
L 170.551876 147.516883 
L 170.733153 147.471389 
L 171.276983 174.532964 
L 171.639537 142.090808 
L 171.820813 114.273306 
L 172.00209 128.108308 
L 172.183367 132.750464 
L 172.54592 118.238139 
L 172.727197 114.139356 
L 172.908474 114.066891 
L 173.08975 110.561672 
L 173.452304 113.870294 
L 173.814857 94.924676 
L 173.996134 100.65511 
L 174.177411 113.515875 
L 174.358688 154.916364 
L 174.539964 161.506334 
L 174.721241 157.609765 
L 174.902518 156.449482 
L 175.265071 178.168904 
L 175.446348 169.811178 
L 175.808901 182.405125 
L 175.990178 182.035135 
L 176.171455 174.584659 
L 176.352732 205.854084 
L 176.534008 213.278437 
L 176.715285 175.161257 
L 176.896562 174.645611 
L 177.077839 172.714325 
L 177.259115 174.532214 
L 177.440392 171.606033 
L 177.621669 179.762989 
L 177.802945 178.748969 
L 177.984222 175.989781 
L 178.165499 202.675263 
L 178.346776 205.188263 
L 178.709329 185.295057 
L 179.071883 143.81132 
L 179.253159 143.16666 
L 179.434436 148.619485 
L 179.79699 168.638591 
L 179.978266 166.546091 
L 180.34082 121.873645 
L 180.703373 145.656441 
L 181.065927 106.416138 
L 181.42848 99.972475 
L 181.609757 100.042853 
L 181.791034 94.753846 
L 181.97231 95.445149 
L 182.334864 104.68622 
L 182.516141 105.008676 
L 182.697417 106.720966 
L 182.878694 98.895536 
L 183.059971 98.751553 
L 183.422524 117.246836 
L 183.603801 121.447378 
L 183.785078 129.759722 
L 183.966354 143.214008 
L 184.147631 144.717883 
L 184.328908 142.275245 
L 184.691461 157.579495 
L 184.872738 142.810225 
L 185.054015 170.493094 
L 185.235292 168.879197 
L 185.416568 151.243823 
L 185.597845 149.412876 
L 185.779122 144.203229 
L 185.960399 150.089295 
L 186.141675 142.725036 
L 186.322952 145.307371 
L 186.504229 143.244466 
L 186.685505 144.910844 
L 186.866782 139.697776 
L 187.229336 165.774671 
L 187.773166 113.721035 
L 188.316996 101.508923 
L 188.67955 105.586599 
L 188.860826 103.010628 
L 189.22338 86.477916 
L 189.585933 104.460261 
L 189.76721 135.215279 
L 189.948487 136.975001 
L 190.129763 148.809347 
L 190.31104 150.751849 
L 190.492317 132.804834 
L 190.85487 146.139679 
L 191.036147 154.137327 
L 191.579977 103.985936 
L 191.761254 116.956189 
L 191.942531 154.211602 
L 192.123807 163.06745 
L 192.305084 164.111888 
L 192.667638 187.505445 
L 192.848914 184.757288 
L 193.211468 208.361346 
L 193.574021 193.650564 
L 193.755298 174.607512 
L 193.936575 174.262711 
L 194.117852 150.14131 
L 194.299128 150.373722 
L 194.480405 142.727102 
L 194.661682 143.745356 
L 194.842958 140.993251 
L 195.024235 142.398297 
L 195.205512 142.744763 
L 195.568065 126.19303 
L 195.749342 125.676493 
L 195.930619 130.158248 
L 196.293172 104.808489 
L 196.655726 94.446498 
L 196.837003 97.386319 
L 197.018279 98.101282 
L 197.199556 100.878949 
L 197.380833 100.157245 
L 197.562109 104.736196 
L 197.743386 84.224349 
L 197.924663 88.168351 
L 198.10594 107.139524 
L 198.287216 104.894329 
L 198.831047 146.028433 
L 199.1936 120.968763 
L 199.374877 95.662568 
L 199.556154 108.237001 
L 199.73743 135.162454 
L 200.099984 127.413474 
L 200.462537 118.731798 
L 200.825091 137.392027 
L 201.006367 126.512284 
L 201.187644 136.761079 
L 201.368921 139.778843 
L 201.550198 140.592539 
L 201.731474 130.633123 
L 201.912751 130.291259 
L 202.275305 110.331118 
L 202.456581 145.529882 
L 202.637858 147.65951 
L 203.000412 141.096062 
L 203.181688 128.4903 
L 203.362965 128.45731 
L 203.544242 127.135913 
L 204.088072 118.446228 
L 204.269349 125.42486 
L 204.450625 137.772326 
L 204.631902 133.258584 
L 204.813179 133.863102 
L 204.994456 129.530104 
L 205.175732 150.214257 
L 205.538286 164.091266 
L 205.719563 150.586281 
L 205.900839 146.822302 
L 206.082116 154.010756 
L 206.263393 153.948131 
L 206.444669 153.511972 
L 206.625946 129.052324 
L 206.807223 151.764028 
L 206.9885 140.461525 
L 207.169776 148.270426 
L 207.53233 141.354324 
L 208.07616 109.700852 
L 208.257437 114.111695 
L 208.438714 112.402732 
L 208.61999 109.25993 
L 208.801267 122.521235 
L 208.982544 99.422687 
L 209.16382 123.98318 
L 209.345097 131.326163 
L 209.526374 132.435652 
L 210.070204 151.736969 
L 210.251481 151.020706 
L 210.432758 161.813229 
L 210.614034 162.046836 
L 210.976588 188.815658 
L 211.157865 197.13854 
L 211.339141 174.755227 
L 211.520418 173.481495 
L 211.882971 145.187586 
L 212.064248 151.408051 
L 212.245525 145.306741 
L 212.426802 151.14316 
L 212.608078 148.05816 
L 212.789355 126.945313 
L 212.970632 127.876996 
L 213.151909 127.120741 
L 213.333185 115.680535 
L 213.514462 118.75411 
L 213.695739 112.219101 
L 213.877016 110.578442 
L 214.602122 149.800763 
L 214.783399 148.052983 
L 215.145953 182.962999 
L 215.87106 149.468358 
L 216.052336 131.725371 
L 216.233613 127.665733 
L 216.41489 127.147342 
L 216.596167 118.8976 
L 216.777443 125.354562 
L 216.95872 124.858619 
L 217.139997 110.555259 
L 217.321273 106.645247 
L 217.683827 79.678733 
L 217.865104 117.66053 
L 218.04638 119.532096 
L 218.227657 117.371428 
L 218.408934 113.763242 
L 218.952764 133.340289 
L 219.134041 126.818152 
L 219.315318 137.259856 
L 219.496594 132.565138 
L 219.677871 136.48328 
L 219.859148 128.062208 
L 220.040424 145.75741 
L 220.221701 143.683008 
L 220.402978 153.05036 
L 220.765531 183.570954 
L 220.946808 190.746466 
L 221.128085 188.70759 
L 221.309362 194.603749 
L 221.490638 176.560251 
L 221.671915 193.887125 
L 221.853192 191.110758 
L 222.034469 181.397324 
L 222.215745 181.638861 
L 222.397022 154.059256 
L 222.578299 154.138643 
L 222.759576 158.188068 
L 222.940852 170.787934 
L 223.122129 164.247327 
L 223.303406 166.415868 
L 223.484682 156.430874 
L 223.665959 157.44544 
L 223.847236 167.971033 
L 224.028513 163.367795 
L 224.391066 127.058797 
L 224.572343 109.41775 
L 224.75362 104.456553 
L 225.116173 108.252964 
L 225.478727 96.546499 
L 225.660003 94.38486 
L 225.84128 78.078989 
L 226.022557 78.381963 
L 226.203833 79.034903 
L 226.38511 92.114961 
L 226.566387 90.430425 
L 226.747664 148.189735 
L 226.92894 156.016891 
L 227.110217 169.653342 
L 227.291494 173.459898 
L 227.472771 183.447878 
L 227.654047 186.380106 
L 227.835324 186.727383 
L 228.016601 200.45392 
L 228.197878 204.162404 
L 228.560431 193.405617 
L 228.741708 200.091394 
L 229.466815 138.788498 
L 229.829368 140.82379 
L 230.191922 134.715746 
L 230.373198 120.616109 
L 230.554475 121.328709 
L 230.735752 125.879465 
L 230.917029 140.905148 
L 231.098305 133.776514 
L 231.460859 106.837645 
L 231.642135 87.130695 
L 231.823412 87.134266 
L 232.004689 87.582588 
L 232.185966 82.815138 
L 232.367242 83.744968 
L 232.548519 103.677877 
L 232.729796 104.561503 
L 232.911073 98.046751 
L 233.273626 170.13475 
L 233.454903 178.849532 
L 233.63618 178.810767 
L 233.817456 173.198096 
L 234.361286 200.37611 
L 234.72384 240.586244 
L 234.905117 242.116364 
L 235.086393 187.400387 
L 235.26767 181.807925 
L 235.992777 135.428049 
L 236.174054 131.866304 
L 236.355331 120.40796 
L 236.536607 123.785448 
L 236.717884 140.552325 
L 236.899161 119.919702 
L 237.080437 116.94464 
L 237.261714 121.913577 
L 237.442991 118.220928 
L 237.624268 144.67755 
L 237.986821 139.55847 
L 238.168098 129.084278 
L 238.349375 134.068273 
L 238.530651 134.640706 
L 238.711928 138.73663 
L 238.893205 171.343096 
L 239.074482 180.960239 
L 239.255758 180.580618 
L 239.437035 186.734807 
L 239.618312 179.614552 
L 239.799588 154.190165 
L 239.980865 145.405795 
L 240.162142 142.492845 
L 240.343419 146.084927 
L 240.524695 143.043712 
L 240.705972 136.343194 
L 240.887249 144.250119 
L 241.068526 143.350406 
L 241.249802 166.229084 
L 241.431079 150.830061 
L 241.612356 156.677098 
L 241.974909 99.92814 
L 242.156186 86.857055 
L 242.337463 84.375716 
L 242.51874 94.310059 
L 242.700016 93.96495 
L 243.06257 84.962242 
L 243.425123 66.362034 
L 243.6064 63.401996 
L 243.787677 91.618164 
L 243.968953 95.324883 
L 244.331507 168.662147 
L 244.512784 169.319685 
L 244.69406 142.141242 
L 244.875337 139.856739 
L 245.056614 139.485325 
L 245.419167 134.734307 
L 245.600444 136.204025 
L 245.781721 149.470148 
L 245.962997 143.022002 
L 246.144274 143.534635 
L 246.325551 138.354522 
L 246.506828 122.070815 
L 246.688104 125.352607 
L 246.869381 122.659343 
L 247.231935 105.482195 
L 247.594488 123.951538 
L 247.775765 123.885125 
L 247.957042 124.267566 
L 248.138318 147.63516 
L 248.500872 128.60328 
L 248.682148 146.502678 
L 248.863425 144.464966 
L 249.044702 145.172341 
L 249.407255 130.406839 
L 249.588532 133.595245 
L 249.769809 134.369197 
L 250.132362 114.435042 
L 250.313639 120.326181 
L 250.494916 114.250641 
L 250.676193 102.698893 
L 251.038746 107.436053 
L 251.220023 112.365388 
L 251.401299 96.141508 
L 251.582576 105.947475 
L 252.307683 79.268093 
L 252.851513 183.6663 
L 253.03279 172.722511 
L 253.214067 179.404637 
L 253.395344 172.677133 
L 253.57662 157.977282 
L 254.12045 143.616024 
L 254.483004 112.608878 
L 254.664281 125.202308 
L 254.845557 127.730562 
L 255.026834 135.003756 
L 255.208111 148.861872 
L 255.389388 146.736386 
L 255.570664 151.080647 
L 255.751941 145.131678 
L 255.933218 145.157288 
L 256.114495 145.033117 
L 256.295771 169.672773 
L 256.477048 172.357951 
L 256.658325 132.404968 
L 257.020878 196.615458 
L 257.202155 195.085498 
L 257.383432 188.876052 
L 257.564708 176.346123 
L 257.927262 182.667248 
L 258.289815 193.715814 
L 258.471092 196.922084 
L 258.652369 211.975768 
L 258.833646 208.476556 
L 259.014922 197.746053 
L 259.377476 153.809469 
L 259.558753 138.429831 
L 259.740029 140.104838 
L 259.921306 129.377874 
L 260.102583 130.556821 
L 260.465136 122.513302 
L 260.646413 127.701119 
L 260.82769 127.411279 
L 261.008966 145.794742 
L 261.190243 148.510611 
L 261.37152 143.57795 
L 261.552797 153.361649 
L 262.277904 126.864352 
L 262.45918 127.813328 
L 262.640457 128.031084 
L 263.00301 150.886446 
L 263.365564 143.826758 
L 263.546841 149.862417 
L 263.728117 128.655018 
L 264.090671 121.986395 
L 264.453224 155.264869 
L 264.634501 143.819382 
L 264.815778 144.440082 
L 265.178331 135.36261 
L 265.359608 135.826358 
L 265.540885 158.492206 
L 265.722161 160.520853 
L 266.084715 130.325706 
L 266.265992 132.221569 
L 266.809822 147.803842 
L 266.991099 143.893268 
L 267.172375 145.046344 
L 267.534929 137.075601 
L 267.716206 141.630163 
L 267.897482 179.173815 
L 268.260036 145.328459 
L 268.441312 143.833829 
L 268.803866 158.584888 
L 269.166419 140.579705 
L 269.347696 146.778401 
L 269.891526 176.18106 
L 270.072803 126.094553 
L 270.25408 139.28381 
L 270.435357 135.499543 
L 270.616633 135.928802 
L 270.79791 137.567068 
L 270.979187 137.993514 
L 271.160463 136.703616 
L 271.704294 100.079001 
L 271.88557 116.198934 
L 272.248124 120.162571 
L 272.429401 104.668711 
L 272.610677 106.270221 
L 273.154508 134.826862 
L 273.335784 135.048089 
L 273.517061 137.033584 
L 273.698338 118.78153 
L 273.879614 131.905414 
L 274.060891 176.980242 
L 274.242168 189.155069 
L 274.423445 165.401258 
L 274.604721 163.433479 
L 274.785998 164.416182 
L 274.967275 171.998342 
L 275.148552 166.247266 
L 275.329828 165.648585 
L 275.692382 161.034569 
L 275.873659 180.224674 
L 276.054935 187.126827 
L 276.236212 211.038033 
L 276.417489 206.339645 
L 277.142596 130.091324 
L 277.323872 129.873596 
L 277.505149 143.807396 
L 277.867703 142.441885 
L 278.230256 131.587247 
L 278.411533 104.786855 
L 278.774086 122.028623 
L 278.955363 117.479708 
L 279.317917 139.483654 
L 279.499193 128.087457 
L 279.68047 124.767293 
L 279.861747 113.902751 
L 280.043023 112.668767 
L 280.2243 119.954775 
L 280.405577 122.445002 
L 280.586854 117.001266 
L 280.76813 126.40762 
L 280.949407 127.855242 
L 281.130684 128.126282 
L 281.493237 122.47491 
L 281.674514 114.835374 
L 281.855791 115.355791 
L 282.218344 119.300186 
L 282.399621 103.771823 
L 282.580898 102.184588 
L 282.762174 115.340345 
L 282.943451 116.795219 
L 283.124728 127.075146 
L 283.306005 123.630795 
L 283.487281 99.31488 
L 283.668558 106.028488 
L 283.849835 117.180454 
L 284.031112 113.248656 
L 284.212388 119.814741 
L 284.393665 114.05876 
L 284.756219 146.928544 
L 285.118772 121.526095 
L 285.300049 112.718776 
L 285.662602 140.745302 
L 285.843879 150.239899 
L 286.206432 134.037216 
L 286.387709 138.009398 
L 286.931539 158.538768 
L 287.112816 194.844042 
L 287.294093 164.746525 
L 287.47537 160.736503 
L 287.837923 139.270318 
L 288.0192 139.981164 
L 288.200476 140.09664 
L 288.381753 152.617749 
L 288.56303 152.851432 
L 288.744307 151.298198 
L 288.925583 143.269859 
L 289.288137 94.524228 
L 289.65069 140.398623 
L 290.375797 159.426225 
L 290.738351 130.332207 
L 290.919627 126.296703 
L 291.100904 127.484414 
L 291.282181 113.482676 
L 291.463458 131.385831 
L 291.826011 121.232893 
L 292.007288 135.374876 
L 292.188565 133.32498 
L 292.369841 137.212118 
L 292.551118 145.823519 
L 292.913672 137.246431 
L 293.094948 139.954528 
L 293.638778 117.64205 
L 293.820055 124.322086 
L 294.182609 98.25191 
L 294.363885 98.182924 
L 294.907716 115.419071 
L 295.270269 106.841991 
L 295.632823 110.25698 
L 295.814099 110.363659 
L 295.995376 102.069674 
L 296.176653 128.471556 
L 296.35793 172.710244 
L 296.539206 173.184685 
L 297.083036 132.478592 
L 297.264313 134.823917 
L 297.44559 134.638014 
L 297.626867 161.90947 
L 297.808143 160.004092 
L 297.98942 174.899379 
L 298.170697 153.187934 
L 298.351974 167.559754 
L 298.714527 154.127604 
L 299.077081 146.570569 
L 299.258357 156.079179 
L 299.439634 145.48564 
L 299.620911 143.971335 
L 300.164741 182.566363 
L 300.346018 190.963444 
L 300.708571 160.547511 
L 301.071125 136.457109 
L 301.252401 130.62917 
L 301.614955 134.584852 
L 301.796232 128.356554 
L 301.977508 126.883333 
L 302.158785 128.715781 
L 302.340062 109.820789 
L 302.883892 137.396051 
L 303.246445 119.393414 
L 303.427722 118.976092 
L 303.608999 129.63519 
L 303.790276 130.455696 
L 303.971552 122.634046 
L 304.152829 124.624225 
L 304.334106 120.828548 
L 304.515383 122.950219 
L 304.696659 130.970612 
L 304.877936 150.874283 
L 305.059213 144.098424 
L 305.421766 152.41021 
L 305.603043 145.655177 
L 305.78432 134.34408 
L 305.965596 141.794632 
L 306.146873 135.825392 
L 306.509427 143.299081 
L 306.690703 120.654778 
L 306.87198 148.673125 
L 307.053257 158.389905 
L 307.234534 154.516703 
L 307.41581 147.027975 
L 307.95964 111.379999 
L 308.140917 98.488973 
L 308.322194 102.067102 
L 308.503471 130.530918 
L 308.684747 113.02687 
L 308.866024 111.513641 
L 309.047301 100.566489 
L 309.228578 122.738109 
L 309.409854 183.685963 
L 309.591131 196.088122 
L 309.772408 186.499771 
L 309.953685 188.401566 
L 310.134961 192.134529 
L 310.316238 190.189555 
L 310.497515 190.789525 
L 310.678791 193.396949 
L 311.041345 214.617101 
L 311.222622 211.795629 
L 311.403898 204.58095 
L 311.766452 145.54353 
L 311.947729 132.846653 
L 312.310282 144.604005 
L 312.672836 121.448851 
L 312.854112 128.153016 
L 313.035389 115.300273 
L 313.216666 112.174586 
L 313.397942 125.820408 
L 313.760496 106.124312 
L 313.941773 102.372969 
L 314.123049 109.621272 
L 314.66688 91.99004 
L 315.029433 95.735362 
L 315.391987 79.27656 
L 315.573263 96.386011 
L 316.117094 184.877876 
L 316.29837 188.25337 
L 316.479647 197.745852 
L 316.660924 172.677406 
L 316.8422 175.356982 
L 317.023477 183.545472 
L 317.204754 177.726963 
L 317.386031 183.335396 
L 317.567307 184.417476 
L 317.929861 162.308642 
L 318.111138 117.277948 
L 318.292414 106.034551 
L 318.473691 112.552301 
L 318.654968 101.473228 
L 318.836245 80.041379 
L 319.017521 72.253658 
L 319.380075 91.744771 
L 319.561351 80.164254 
L 319.742628 80.277258 
L 319.923905 93.671125 
L 320.105182 85.771043 
L 320.286458 147.236044 
L 320.467735 165.01691 
L 320.830289 134.836916 
L 321.011565 147.767241 
L 321.374119 144.305642 
L 321.917949 184.015062 
L 322.099226 159.828623 
L 322.280502 172.575871 
L 322.461779 154.429996 
L 322.643056 151.097962 
L 322.824333 151.445223 
L 323.005609 156.986348 
L 323.186886 141.56692 
L 323.54944 127.318384 
L 323.730716 128.556971 
L 323.911993 139.720632 
L 324.09327 140.384791 
L 324.274547 140.04529 
L 324.455823 151.304687 
L 324.6371 136.031226 
L 324.818377 131.591251 
L 324.999653 134.194814 
L 325.18093 147.381761 
L 325.362207 152.401229 
L 325.543484 152.603034 
L 325.906037 126.859942 
L 326.087314 157.078613 
L 326.268591 146.474323 
L 326.449867 156.487757 
L 326.631144 152.352737 
L 326.812421 165.538202 
L 326.993698 151.234525 
L 327.174974 165.228619 
L 327.356251 167.717883 
L 327.537528 168.259027 
L 327.718804 146.390445 
L 327.900081 143.739802 
L 328.081358 143.185653 
L 328.262635 123.975877 
L 328.443911 124.179431 
L 328.806465 96.544544 
L 328.987742 96.690915 
L 329.169018 104.321081 
L 329.350295 131.194191 
L 329.531572 124.787378 
L 329.712849 106.607361 
L 329.894125 106.910247 
L 330.075402 98.579712 
L 330.256679 99.02057 
L 330.619232 81.999596 
L 330.800509 87.104731 
L 330.981786 100.215797 
L 331.344339 153.530516 
L 331.525616 159.837757 
L 331.706893 160.761439 
L 331.888169 166.450179 
L 332.069446 164.382065 
L 332.250723 159.538888 
L 332.613276 189.57209 
L 332.794553 170.005097 
L 332.97583 178.856394 
L 333.157107 170.255888 
L 333.51966 135.365706 
L 333.882213 119.866282 
L 334.244767 123.656518 
L 334.426044 117.07788 
L 334.60732 116.709046 
L 334.788597 115.94448 
L 335.151151 136.994411 
L 335.332427 110.826383 
L 335.513704 136.034834 
L 335.694981 134.114231 
L 336.057534 107.970444 
L 336.238811 108.186864 
L 336.420088 102.13604 
L 336.601364 103.915911 
L 336.782641 108.505741 
L 336.963918 103.871845 
L 337.145195 103.326206 
L 337.507748 134.323287 
L 337.689025 132.861137 
L 338.051578 120.59511 
L 338.232855 124.401549 
L 338.414132 108.430672 
L 338.776685 100.961491 
L 338.957962 96.125276 
L 339.139239 99.141916 
L 339.864346 157.66182 
L 340.045622 175.140642 
L 340.408176 161.382544 
L 341.495836 213.981818 
L 341.677113 188.0077 
L 341.85839 178.92028 
L 342.220943 129.496865 
L 342.583497 134.632401 
L 343.127327 107.907626 
L 343.308604 112.666054 
L 344.033711 78.755926 
L 344.577541 142.428711 
L 344.758817 144.064149 
L 344.940094 152.114114 
L 345.121371 137.965236 
L 345.483924 146.576897 
L 345.665201 162.706593 
L 345.846478 158.991287 
L 346.209031 175.799942 
L 346.571585 137.43267 
L 346.752862 130.964829 
L 346.934138 132.677459 
L 347.115415 133.282979 
L 347.296692 135.701165 
L 347.477968 140.518549 
L 347.659245 129.925002 
L 347.840522 129.300807 
L 348.021799 113.402013 
L 348.203075 109.853539 
L 348.384352 142.099324 
L 348.928182 111.410228 
L 349.109459 123.538919 
L 349.290736 112.891311 
L 349.472013 113.395331 
L 349.653289 110.225342 
L 349.834566 104.867539 
L 350.015843 89.427881 
L 350.559673 135.881032 
L 350.74095 171.071089 
L 350.922226 176.386733 
L 351.103503 169.133535 
L 351.28478 154.72667 
L 351.466057 159.773004 
L 351.647333 149.107498 
L 352.009887 182.246936 
L 352.191164 209.407149 
L 352.37244 175.058759 
L 352.553717 169.182717 
L 353.278824 88.060123 
L 353.460101 85.269911 
L 353.641377 71.742053 
L 353.822654 47.499141 
L 354.003931 52.562261 
L 354.185208 61.473395 
L 354.547761 54.411407 
L 354.729038 46.804548 
L 354.910315 56.50522 
L 355.272868 128.596751 
L 355.635422 160.896774 
L 355.816698 165.862072 
L 355.997975 165.242371 
L 356.179252 168.206157 
L 356.723082 229.932387 
L 356.904359 215.334086 
L 357.085635 183.596596 
L 357.266912 176.876307 
L 357.448189 158.313772 
L 357.629466 152.385538 
L 357.810742 152.108018 
L 357.992019 142.644208 
L 358.173296 142.532095 
L 358.354573 142.578922 
L 358.535849 137.948318 
L 358.717126 138.337143 
L 358.898403 149.328569 
L 359.079679 145.593663 
L 359.260956 148.854717 
L 359.442233 115.0786 
L 359.62351 105.423839 
L 359.804786 108.527013 
L 359.986063 106.945693 
L 360.16734 100.110306 
L 360.348617 102.1037 
L 360.529893 98.806317 
L 360.892447 70.581923 
L 361.073724 67.49299 
L 361.255 98.128979 
L 361.436277 94.095128 
L 361.617554 87.490933 
L 361.980107 120.588537 
L 362.161384 126.904425 
L 362.886491 106.43158 
L 363.067768 108.452887 
L 363.249044 130.891842 
L 363.430321 114.283086 
L 363.611598 128.26575 
L 363.974151 162.13406 
L 364.155428 168.169599 
L 364.336705 168.176361 
L 364.517981 158.898176 
L 365.061812 185.771269 
L 365.424365 150.131487 
L 365.605642 156.971866 
L 365.786919 142.951006 
L 365.968195 108.696715 
L 366.149472 106.906976 
L 366.512026 78.636622 
L 366.693302 80.071998 
L 366.874579 67.682239 
L 367.055856 65.420165 
L 367.237132 44.994849 
L 367.418409 44.443636 
L 367.780963 69.582429 
L 367.962239 65.530801 
L 368.50607 156.68093 
L 368.687346 155.903322 
L 368.868623 160.745227 
L 369.231177 181.019189 
L 369.412453 172.17052 
L 369.59373 154.299099 
L 369.775007 185.47006 
L 370.318837 102.127685 
L 370.68139 98.249454 
L 371.225221 70.822095 
L 371.406497 74.759716 
L 371.587774 70.491833 
L 371.769051 72.769998 
L 371.950328 81.240354 
L 372.312881 121.582485 
L 372.494158 123.760448 
L 372.675435 172.635592 
L 373.037988 182.768413 
L 373.219265 161.976205 
L 373.400541 163.730722 
L 373.581818 163.069641 
L 373.581818 163.069641 
" style="fill:none;stroke:#008000;stroke-linecap:square;stroke-width:0.5;"/>
   </g>
   <g id="patch_3">
    <path d="M 54 252 
L 54 34.56 
" style="fill:none;stroke:#000000;stroke-linecap:square;stroke-linejoin:miter;stroke-width:0.8;"/>
   </g>
   <g id="patch_4">
    <path d="M 388.8 252 
L 388.8 34.56 
" style="fill:none;stroke:#000000;stroke-linecap:square;stroke-linejoin:miter;stroke-width:0.8;"/>
   </g>
   <g id="patch_5">
    <path d="M 54 252 
L 388.8 252 
" style="fill:none;stroke:#000000;stroke-linecap:square;stroke-linejoin:miter;stroke-width:0.8;"/>
   </g>
   <g id="patch_6">
    <path d="M 54 34.56 
L 388.8 34.56 
" style="fill:none;stroke:#000000;stroke-linecap:square;stroke-linejoin:miter;stroke-width:0.8;"/>
   </g>
  </g>
 </g>
 <defs>
  <clipPath id="p06d7547208">
   <rect height="217.44" width="334.8" x="54" y="34.56"/>
  </clipPath>
 </defs>
</svg>
