<?xml version="1.0" encoding="utf-8" standalone="no"?>
<!DOCTYPE svg PUBLIC "-//W3C//DTD SVG 1.1//EN"
  "http://www.w3.org/Graphics/SVG/1.1/DTD/svg11.dtd">
<!-- Created with matplotlib (http://matplotlib.org/) -->
<svg height="288pt" version="1.1" viewBox="0 0 432 288" width="432pt" xmlns="http://www.w3.org/2000/svg" xmlns:xlink="http://www.w3.org/1999/xlink">
 <defs>
  <style type="text/css">
*{stroke-linecap:butt;stroke-linejoin:round;}
  </style>
 </defs>
 <g id="figure_1">
  <g id="patch_1">
   <path d="M 0 288 
L 432 288 
L 432 0 
L 0 0 
z
" style="fill:#ffffff;"/>
  </g>
  <g id="axes_1">
   <g id="patch_2">
    <path d="M 54 252 
L 388.8 252 
L 388.8 34.56 
L 54 34.56 
z
" style="fill:#ffffff;"/>
   </g>
   <g id="matplotlib.axis_1">
    <g id="xtick_1">
     <g id="line2d_1">
      <defs>
       <path d="M 0 0 
L 0 3.5 
" id="m58f337373a" style="stroke:#000000;stroke-width:0.8;"/>
      </defs>
      <g>
       <use style="stroke:#000000;stroke-width:0.8;" x="69.218182" xlink:href="#m58f337373a" y="252"/>
      </g>
     </g>
     <g id="text_1">
      <!-- 0 -->
      <defs>
       <path d="M 31.78125 66.40625 
Q 24.171875 66.40625 20.328125 58.90625 
Q 16.5 51.421875 16.5 36.375 
Q 16.5 21.390625 20.328125 13.890625 
Q 24.171875 6.390625 31.78125 6.390625 
Q 39.453125 6.390625 43.28125 13.890625 
Q 47.125 21.390625 47.125 36.375 
Q 47.125 51.421875 43.28125 58.90625 
Q 39.453125 66.40625 31.78125 66.40625 
M 31.78125 74.21875 
Q 44.046875 74.21875 50.515625 64.515625 
Q 56.984375 54.828125 56.984375 36.375 
Q 56.984375 17.96875 50.515625 8.265625 
Q 44.046875 -1.421875 31.78125 -1.421875 
Q 19.53125 -1.421875 13.0625 8.265625 
Q 6.59375 17.96875 6.59375 36.375 
Q 6.59375 54.828125 13.0625 64.515625 
Q 19.53125 74.21875 31.78125 74.21875 
" id="DejaVuSans-30"/>
      </defs>
      <g transform="translate(66.036932 266.598437)scale(0.1 -0.1)">
       <use xlink:href="#DejaVuSans-30"/>
      </g>
     </g>
    </g>
    <g id="xtick_2">
     <g id="line2d_2">
      <g>
       <use style="stroke:#000000;stroke-width:0.8;" x="112.698701" xlink:href="#m58f337373a" y="252"/>
      </g>
     </g>
     <g id="text_2">
      <!-- 20 -->
      <defs>
       <path d="M 19.1875 8.296875 
L 53.609375 8.296875 
L 53.609375 0 
L 7.328125 0 
L 7.328125 8.296875 
Q 12.9375 14.109375 22.625 23.890625 
Q 32.328125 33.6875 34.8125 36.53125 
Q 39.546875 41.84375 41.421875 45.53125 
Q 43.3125 49.21875 43.3125 52.78125 
Q 43.3125 58.59375 39.234375 62.25 
Q 35.15625 65.921875 28.609375 65.921875 
Q 23.96875 65.921875 18.8125 64.3125 
Q 13.671875 62.703125 7.8125 59.421875 
L 7.8125 69.390625 
Q 13.765625 71.78125 18.9375 73 
Q 24.125 74.21875 28.421875 74.21875 
Q 39.75 74.21875 46.484375 68.546875 
Q 53.21875 62.890625 53.21875 53.421875 
Q 53.21875 48.921875 51.53125 44.890625 
Q 49.859375 40.875 45.40625 35.40625 
Q 44.1875 33.984375 37.640625 27.21875 
Q 31.109375 20.453125 19.1875 8.296875 
" id="DejaVuSans-32"/>
      </defs>
      <g transform="translate(106.336201 266.598437)scale(0.1 -0.1)">
       <use xlink:href="#DejaVuSans-32"/>
       <use x="63.623047" xlink:href="#DejaVuSans-30"/>
      </g>
     </g>
    </g>
    <g id="xtick_3">
     <g id="line2d_3">
      <g>
       <use style="stroke:#000000;stroke-width:0.8;" x="156.179221" xlink:href="#m58f337373a" y="252"/>
      </g>
     </g>
     <g id="text_3">
      <!-- 40 -->
      <defs>
       <path d="M 37.796875 64.3125 
L 12.890625 25.390625 
L 37.796875 25.390625 
z
M 35.203125 72.90625 
L 47.609375 72.90625 
L 47.609375 25.390625 
L 58.015625 25.390625 
L 58.015625 17.1875 
L 47.609375 17.1875 
L 47.609375 0 
L 37.796875 0 
L 37.796875 17.1875 
L 4.890625 17.1875 
L 4.890625 26.703125 
z
" id="DejaVuSans-34"/>
      </defs>
      <g transform="translate(149.816721 266.598437)scale(0.1 -0.1)">
       <use xlink:href="#DejaVuSans-34"/>
       <use x="63.623047" xlink:href="#DejaVuSans-30"/>
      </g>
     </g>
    </g>
    <g id="xtick_4">
     <g id="line2d_4">
      <g>
       <use style="stroke:#000000;stroke-width:0.8;" x="199.65974" xlink:href="#m58f337373a" y="252"/>
      </g>
     </g>
     <g id="text_4">
      <!-- 60 -->
      <defs>
       <path d="M 33.015625 40.375 
Q 26.375 40.375 22.484375 35.828125 
Q 18.609375 31.296875 18.609375 23.390625 
Q 18.609375 15.53125 22.484375 10.953125 
Q 26.375 6.390625 33.015625 6.390625 
Q 39.65625 6.390625 43.53125 10.953125 
Q 47.40625 15.53125 47.40625 23.390625 
Q 47.40625 31.296875 43.53125 35.828125 
Q 39.65625 40.375 33.015625 40.375 
M 52.59375 71.296875 
L 52.59375 62.3125 
Q 48.875 64.0625 45.09375 64.984375 
Q 41.3125 65.921875 37.59375 65.921875 
Q 27.828125 65.921875 22.671875 59.328125 
Q 17.53125 52.734375 16.796875 39.40625 
Q 19.671875 43.65625 24.015625 45.921875 
Q 28.375 48.1875 33.59375 48.1875 
Q 44.578125 48.1875 50.953125 41.515625 
Q 57.328125 34.859375 57.328125 23.390625 
Q 57.328125 12.15625 50.6875 5.359375 
Q 44.046875 -1.421875 33.015625 -1.421875 
Q 20.359375 -1.421875 13.671875 8.265625 
Q 6.984375 17.96875 6.984375 36.375 
Q 6.984375 53.65625 15.1875 63.9375 
Q 23.390625 74.21875 37.203125 74.21875 
Q 40.921875 74.21875 44.703125 73.484375 
Q 48.484375 72.75 52.59375 71.296875 
" id="DejaVuSans-36"/>
      </defs>
      <g transform="translate(193.29724 266.598437)scale(0.1 -0.1)">
       <use xlink:href="#DejaVuSans-36"/>
       <use x="63.623047" xlink:href="#DejaVuSans-30"/>
      </g>
     </g>
    </g>
    <g id="xtick_5">
     <g id="line2d_5">
      <g>
       <use style="stroke:#000000;stroke-width:0.8;" x="243.14026" xlink:href="#m58f337373a" y="252"/>
      </g>
     </g>
     <g id="text_5">
      <!-- 80 -->
      <defs>
       <path d="M 31.78125 34.625 
Q 24.75 34.625 20.71875 30.859375 
Q 16.703125 27.09375 16.703125 20.515625 
Q 16.703125 13.921875 20.71875 10.15625 
Q 24.75 6.390625 31.78125 6.390625 
Q 38.8125 6.390625 42.859375 10.171875 
Q 46.921875 13.96875 46.921875 20.515625 
Q 46.921875 27.09375 42.890625 30.859375 
Q 38.875 34.625 31.78125 34.625 
M 21.921875 38.8125 
Q 15.578125 40.375 12.03125 44.71875 
Q 8.5 49.078125 8.5 55.328125 
Q 8.5 64.0625 14.71875 69.140625 
Q 20.953125 74.21875 31.78125 74.21875 
Q 42.671875 74.21875 48.875 69.140625 
Q 55.078125 64.0625 55.078125 55.328125 
Q 55.078125 49.078125 51.53125 44.71875 
Q 48 40.375 41.703125 38.8125 
Q 48.828125 37.15625 52.796875 32.3125 
Q 56.78125 27.484375 56.78125 20.515625 
Q 56.78125 9.90625 50.3125 4.234375 
Q 43.84375 -1.421875 31.78125 -1.421875 
Q 19.734375 -1.421875 13.25 4.234375 
Q 6.78125 9.90625 6.78125 20.515625 
Q 6.78125 27.484375 10.78125 32.3125 
Q 14.796875 37.15625 21.921875 38.8125 
M 18.3125 54.390625 
Q 18.3125 48.734375 21.84375 45.5625 
Q 25.390625 42.390625 31.78125 42.390625 
Q 38.140625 42.390625 41.71875 45.5625 
Q 45.3125 48.734375 45.3125 54.390625 
Q 45.3125 60.0625 41.71875 63.234375 
Q 38.140625 66.40625 31.78125 66.40625 
Q 25.390625 66.40625 21.84375 63.234375 
Q 18.3125 60.0625 18.3125 54.390625 
" id="DejaVuSans-38"/>
      </defs>
      <g transform="translate(236.77776 266.598437)scale(0.1 -0.1)">
       <use xlink:href="#DejaVuSans-38"/>
       <use x="63.623047" xlink:href="#DejaVuSans-30"/>
      </g>
     </g>
    </g>
    <g id="xtick_6">
     <g id="line2d_6">
      <g>
       <use style="stroke:#000000;stroke-width:0.8;" x="286.620779" xlink:href="#m58f337373a" y="252"/>
      </g>
     </g>
     <g id="text_6">
      <!-- 100 -->
      <defs>
       <path d="M 12.40625 8.296875 
L 28.515625 8.296875 
L 28.515625 63.921875 
L 10.984375 60.40625 
L 10.984375 69.390625 
L 28.421875 72.90625 
L 38.28125 72.90625 
L 38.28125 8.296875 
L 54.390625 8.296875 
L 54.390625 0 
L 12.40625 0 
z
" id="DejaVuSans-31"/>
      </defs>
      <g transform="translate(277.077029 266.598437)scale(0.1 -0.1)">
       <use xlink:href="#DejaVuSans-31"/>
       <use x="63.623047" xlink:href="#DejaVuSans-30"/>
       <use x="127.246094" xlink:href="#DejaVuSans-30"/>
      </g>
     </g>
    </g>
    <g id="xtick_7">
     <g id="line2d_7">
      <g>
       <use style="stroke:#000000;stroke-width:0.8;" x="330.101299" xlink:href="#m58f337373a" y="252"/>
      </g>
     </g>
     <g id="text_7">
      <!-- 120 -->
      <g transform="translate(320.557549 266.598437)scale(0.1 -0.1)">
       <use xlink:href="#DejaVuSans-31"/>
       <use x="63.623047" xlink:href="#DejaVuSans-32"/>
       <use x="127.246094" xlink:href="#DejaVuSans-30"/>
      </g>
     </g>
    </g>
    <g id="xtick_8">
     <g id="line2d_8">
      <g>
       <use style="stroke:#000000;stroke-width:0.8;" x="373.581818" xlink:href="#m58f337373a" y="252"/>
      </g>
     </g>
     <g id="text_8">
      <!-- 140 -->
      <g transform="translate(364.038068 266.598437)scale(0.1 -0.1)">
       <use xlink:href="#DejaVuSans-31"/>
       <use x="63.623047" xlink:href="#DejaVuSans-34"/>
       <use x="127.246094" xlink:href="#DejaVuSans-30"/>
      </g>
     </g>
    </g>
   </g>
   <g id="matplotlib.axis_2">
    <g id="ytick_1">
     <g id="line2d_9">
      <defs>
       <path d="M 0 0 
L -3.5 0 
" id="mb2afa0c5aa" style="stroke:#000000;stroke-width:0.8;"/>
      </defs>
      <g>
       <use style="stroke:#000000;stroke-width:0.8;" x="54" xlink:href="#mb2afa0c5aa" y="225.688067"/>
      </g>
     </g>
     <g id="text_9">
      <!-- −2 -->
      <defs>
       <path d="M 10.59375 35.5 
L 73.1875 35.5 
L 73.1875 27.203125 
L 10.59375 27.203125 
z
" id="DejaVuSans-2212"/>
      </defs>
      <g transform="translate(32.257812 229.487286)scale(0.1 -0.1)">
       <use xlink:href="#DejaVuSans-2212"/>
       <use x="83.789062" xlink:href="#DejaVuSans-32"/>
      </g>
     </g>
    </g>
    <g id="ytick_2">
     <g id="line2d_10">
      <g>
       <use style="stroke:#000000;stroke-width:0.8;" x="54" xlink:href="#mb2afa0c5aa" y="185.801362"/>
      </g>
     </g>
     <g id="text_10">
      <!-- −1 -->
      <g transform="translate(32.257812 189.60058)scale(0.1 -0.1)">
       <use xlink:href="#DejaVuSans-2212"/>
       <use x="83.789062" xlink:href="#DejaVuSans-31"/>
      </g>
     </g>
    </g>
    <g id="ytick_3">
     <g id="line2d_11">
      <g>
       <use style="stroke:#000000;stroke-width:0.8;" x="54" xlink:href="#mb2afa0c5aa" y="145.914656"/>
      </g>
     </g>
     <g id="text_11">
      <!-- 0 -->
      <g transform="translate(40.6375 149.713875)scale(0.1 -0.1)">
       <use xlink:href="#DejaVuSans-30"/>
      </g>
     </g>
    </g>
    <g id="ytick_4">
     <g id="line2d_12">
      <g>
       <use style="stroke:#000000;stroke-width:0.8;" x="54" xlink:href="#mb2afa0c5aa" y="106.027951"/>
      </g>
     </g>
     <g id="text_12">
      <!-- 1 -->
      <g transform="translate(40.6375 109.82717)scale(0.1 -0.1)">
       <use xlink:href="#DejaVuSans-31"/>
      </g>
     </g>
    </g>
    <g id="ytick_5">
     <g id="line2d_13">
      <g>
       <use style="stroke:#000000;stroke-width:0.8;" x="54" xlink:href="#mb2afa0c5aa" y="66.141246"/>
      </g>
     </g>
     <g id="text_13">
      <!-- 2 -->
      <g transform="translate(40.6375 69.940465)scale(0.1 -0.1)">
       <use xlink:href="#DejaVuSans-32"/>
      </g>
     </g>
    </g>
   </g>
   <g id="line2d_14">
    <path clip-path="url(#p1df6d54740)" d="M 69.218182 119.652935 
L 69.399459 112.984141 
L 69.580735 113.829212 
L 69.762012 121.01132 
L 69.943289 121.273791 
L 70.487119 147.431075 
L 70.668396 145.639084 
L 70.849672 141.8563 
L 71.030949 128.886081 
L 71.212226 133.605188 
L 71.393503 142.105104 
L 71.756056 131.99564 
L 72.11861 143.574227 
L 72.299886 144.706566 
L 72.66244 161.72463 
L 72.843716 155.66327 
L 73.024993 144.398394 
L 73.20627 111.675183 
L 73.387547 111.651977 
L 73.568823 117.803512 
L 73.931377 107.236319 
L 74.112654 109.503324 
L 74.29393 119.511121 
L 74.475207 111.891492 
L 74.837761 126.679022 
L 75.019037 141.414535 
L 75.200314 140.778505 
L 75.381591 135.759844 
L 75.562868 127.630328 
L 75.744144 140.486997 
L 75.925421 141.851422 
L 76.106698 144.152529 
L 76.287974 121.313546 
L 76.469251 125.614633 
L 76.650528 122.914319 
L 77.013081 145.883984 
L 77.375635 137.689404 
L 77.556912 128.11969 
L 77.738188 112.408412 
L 77.919465 110.581681 
L 78.100742 106.630568 
L 78.463295 122.16281 
L 78.644572 116.601406 
L 78.825849 117.455656 
L 79.188402 126.877195 
L 79.369679 141.674935 
L 79.550956 142.752201 
L 79.913509 115.816304 
L 80.094786 117.82105 
L 80.276063 110.113383 
L 80.457339 118.745971 
L 80.638616 117.674387 
L 80.819893 119.651594 
L 81.00117 118.510571 
L 81.363723 140.581924 
L 81.545 136.689679 
L 81.726276 144.018745 
L 82.08883 122.327606 
L 82.270107 122.868011 
L 82.451383 122.288405 
L 82.63266 124.156112 
L 82.813937 122.634869 
L 83.17649 121.642089 
L 83.357767 140.003331 
L 83.539044 133.640795 
L 83.720321 131.1802 
L 83.901597 134.0097 
L 84.082874 127.667139 
L 84.264151 126.134249 
L 84.445427 130.517124 
L 84.626704 128.7568 
L 84.807981 123.89917 
L 84.989258 128.248224 
L 85.170534 127.199902 
L 85.351811 128.230224 
L 85.533088 125.362146 
L 85.714365 127.078974 
L 85.895641 135.895304 
L 86.076918 137.899184 
L 86.258195 124.629068 
L 86.439472 126.473127 
L 86.620748 142.920144 
L 86.802025 143.717729 
L 86.983302 134.402169 
L 87.164578 134.268648 
L 87.345855 134.688093 
L 87.527132 131.461549 
L 87.708409 131.379706 
L 87.889685 129.825983 
L 88.070962 133.02443 
L 88.433516 157.770294 
L 88.614792 144.011451 
L 88.796069 139.624699 
L 89.158623 158.336944 
L 89.339899 158.422533 
L 89.521176 156.17607 
L 89.702453 152.180858 
L 90.065006 183.465437 
L 90.246283 182.855533 
L 90.42756 184.599428 
L 90.608836 170.01272 
L 90.97139 173.234593 
L 91.152667 187.203818 
L 91.333943 182.037648 
L 91.51522 180.697563 
L 91.877774 189.352994 
L 92.05905 174.398638 
L 92.240327 178.309354 
L 92.421604 177.639489 
L 92.602881 173.202165 
L 92.965434 152.914159 
L 93.146711 155.224907 
L 93.509264 143.339114 
L 93.690541 120.880556 
L 93.871818 119.774797 
L 94.053094 116.399137 
L 94.234371 103.820382 
L 94.415648 132.760488 
L 94.596925 138.163828 
L 95.140755 90.246338 
L 95.322032 91.351798 
L 95.503308 87.589923 
L 95.684585 92.879578 
L 96.047138 117.731437 
L 96.590969 141.523294 
L 96.772245 139.453585 
L 96.953522 134.592596 
L 97.134799 147.52722 
L 97.497352 134.527122 
L 97.678629 123.716516 
L 98.041183 126.056111 
L 98.222459 124.129551 
L 98.585013 133.648761 
L 98.766289 122.183184 
L 98.947566 127.954184 
L 99.128843 138.946298 
L 99.31012 134.614665 
L 99.491396 133.970491 
L 99.672673 131.338866 
L 99.85395 132.790993 
L 100.035227 144.284282 
L 100.216503 146.729115 
L 100.39778 142.497642 
L 100.579057 142.076675 
L 100.760334 147.373615 
L 100.94161 132.61613 
L 101.122887 136.145589 
L 101.304164 148.371668 
L 101.847994 128.758746 
L 102.210547 147.819649 
L 102.573101 121.513043 
L 102.754378 126.801266 
L 102.935654 143.753245 
L 103.116931 144.262418 
L 103.298208 137.948595 
L 103.479485 157.651922 
L 103.660761 156.981917 
L 104.204591 175.617025 
L 104.385868 173.704215 
L 104.748422 161.3394 
L 105.110975 165.350108 
L 105.292252 157.474518 
L 105.473529 142.534099 
L 105.654805 153.577076 
L 105.836082 140.264425 
L 106.017359 138.034926 
L 106.379912 125.665169 
L 106.561189 115.313281 
L 107.105019 132.4999 
L 107.286296 129.679998 
L 107.467573 144.416216 
L 107.648849 144.213408 
L 108.011403 167.171574 
L 108.19268 168.05329 
L 108.555233 179.684169 
L 108.917787 154.919072 
L 109.461617 170.426608 
L 109.642893 160.708264 
L 110.005447 151.395995 
L 110.186724 151.975744 
L 110.368 142.897379 
L 110.549277 161.267691 
L 110.730554 156.959277 
L 111.093107 142.543646 
L 111.455661 159.719445 
L 111.636938 153.407107 
L 111.818214 153.185385 
L 111.999491 168.752683 
L 112.180768 159.941451 
L 112.362045 158.187648 
L 112.543321 161.468585 
L 112.724598 158.510687 
L 112.905875 151.584217 
L 113.268428 156.998406 
L 113.449705 146.275047 
L 113.630982 145.946065 
L 113.812258 157.731603 
L 114.174812 139.023694 
L 114.356089 117.111278 
L 114.718642 109.071131 
L 114.899919 115.970825 
L 115.262472 153.438561 
L 115.443749 162.883219 
L 115.806302 156.262608 
L 116.168856 174.784658 
L 116.712686 155.013843 
L 116.893963 155.759086 
L 117.07524 153.23549 
L 117.256516 148.095333 
L 117.61907 131.794791 
L 117.800347 131.901252 
L 117.981623 124.766051 
L 118.1629 127.968092 
L 118.344177 135.795395 
L 118.525453 135.712507 
L 118.70673 143.877786 
L 118.888007 146.264578 
L 119.613114 94.719313 
L 119.794391 93.313585 
L 119.975667 68.247264 
L 120.156944 68.834516 
L 120.519498 105.645837 
L 120.700774 113.710143 
L 120.882051 108.748951 
L 121.063328 113.169072 
L 121.244604 103.047577 
L 121.969711 141.178461 
L 122.150988 149.037862 
L 122.332265 162.076626 
L 122.513542 165.116699 
L 122.694818 165.06556 
L 122.876095 159.007743 
L 123.238649 131.274521 
L 123.419925 124.038542 
L 123.601202 125.831661 
L 123.963755 112.887096 
L 124.145032 110.276926 
L 124.326309 112.25784 
L 124.507586 115.539698 
L 124.688862 114.499481 
L 124.870139 110.329529 
L 125.051416 120.562024 
L 125.232693 107.056083 
L 125.413969 104.039838 
L 125.776523 124.139463 
L 125.9578 116.191523 
L 126.139076 116.444895 
L 126.320353 117.401071 
L 126.50163 124.017091 
L 126.682906 135.254603 
L 126.864183 133.514051 
L 127.04546 136.443155 
L 127.408013 127.099587 
L 127.58929 133.546826 
L 127.770567 132.060249 
L 127.951844 124.404239 
L 128.13312 133.488464 
L 128.314397 134.535319 
L 128.495674 137.589575 
L 128.676951 131.797336 
L 129.039504 136.376178 
L 129.220781 132.719317 
L 129.402058 136.847846 
L 129.583334 137.117871 
L 129.945888 161.223262 
L 130.489718 171.047062 
L 130.670995 171.333106 
L 131.033548 153.804339 
L 131.214825 161.748833 
L 131.396102 151.392585 
L 131.577378 154.794538 
L 131.758655 167.596371 
L 131.939932 163.734513 
L 132.121209 155.147045 
L 132.665039 181.552853 
L 132.846315 184.311569 
L 133.027592 177.250976 
L 133.208869 184.806878 
L 133.390146 184.404226 
L 133.571422 186.345097 
L 133.752699 170.006238 
L 133.933976 164.693904 
L 134.115253 167.819067 
L 134.296529 168.110571 
L 134.477806 169.1791 
L 134.84036 194.371299 
L 135.021636 188.86825 
L 135.38419 143.344494 
L 135.746743 201.806261 
L 135.92802 200.814757 
L 136.109297 196.626574 
L 136.290573 196.531603 
L 136.47185 178.844845 
L 137.01568 170.333098 
L 137.196957 171.076969 
L 137.559511 158.469001 
L 137.740787 150.0324 
L 137.922064 147.598368 
L 138.103341 163.244269 
L 138.284617 158.577162 
L 138.647171 125.098583 
L 138.828448 121.37888 
L 139.009724 138.774186 
L 139.191001 141.747389 
L 139.372278 152.288704 
L 139.553555 152.474643 
L 139.734831 154.123193 
L 139.916108 147.629426 
L 140.097385 151.682075 
L 140.278662 146.633833 
L 140.459938 156.788853 
L 140.641215 179.808444 
L 140.822492 177.500504 
L 141.003768 173.03482 
L 141.185045 181.33303 
L 141.366322 178.791357 
L 141.547599 169.345762 
L 141.728875 166.590189 
L 141.910152 166.917791 
L 142.091429 168.132162 
L 142.272706 175.316032 
L 142.635259 137.626355 
L 142.816536 138.00129 
L 143.722919 186.033582 
L 144.085473 164.413843 
L 144.26675 157.99839 
L 144.448026 169.685426 
L 144.629303 166.408629 
L 144.81058 166.086807 
L 144.991857 178.918257 
L 145.35441 155.769548 
L 145.535687 162.354469 
L 145.716964 174.619902 
L 145.89824 167.431735 
L 146.079517 149.121532 
L 146.44207 169.39868 
L 146.623347 176.592535 
L 146.804624 143.935633 
L 147.167177 163.993812 
L 147.348454 159.629544 
L 147.711008 138.653262 
L 147.892284 131.262052 
L 148.073561 135.46079 
L 148.254838 133.796585 
L 148.436115 135.589588 
L 148.617391 132.94275 
L 148.798668 133.63157 
L 149.161222 151.828858 
L 149.523775 173.808339 
L 150.067605 207.906454 
L 150.611435 173.474507 
L 151.155266 147.816723 
L 151.336542 148.984641 
L 151.517819 160.989362 
L 152.242926 124.424641 
L 152.424203 124.152873 
L 152.605479 131.208281 
L 152.786756 124.799153 
L 152.968033 132.41323 
L 153.14931 132.510813 
L 153.330586 120.301704 
L 153.511863 127.547714 
L 153.69314 125.178671 
L 154.055693 135.635805 
L 154.23697 125.178476 
L 154.599524 129.733063 
L 154.7808 127.469496 
L 154.962077 135.048625 
L 155.32463 126.433718 
L 155.687184 138.116271 
L 155.868461 133.987881 
L 156.231014 107.766481 
L 156.412291 119.247861 
L 156.593568 119.969563 
L 156.956121 139.480436 
L 157.137398 138.199255 
L 157.499951 158.296395 
L 157.862505 141.953178 
L 158.225058 154.750136 
L 158.406335 148.931856 
L 158.587612 150.724838 
L 158.768888 147.170498 
L 158.950165 138.300492 
L 159.131442 137.603978 
L 159.312719 147.382367 
L 159.493995 142.506573 
L 159.675272 145.31773 
L 159.856549 152.365154 
L 160.037826 148.119836 
L 160.219102 137.103803 
L 160.581656 96.818111 
L 160.762932 95.988268 
L 160.944209 87.91484 
L 161.125486 90.195841 
L 161.306763 108.235988 
L 161.488039 112.975031 
L 161.669316 105.514689 
L 162.03187 127.906387 
L 162.213146 126.291857 
L 162.394423 129.299873 
L 162.756977 148.279068 
L 162.938253 154.89082 
L 163.11953 139.60933 
L 163.300807 137.729757 
L 163.482083 147.076867 
L 163.66336 149.042239 
L 163.844637 161.59363 
L 164.025914 160.273667 
L 164.20719 165.572592 
L 164.388467 166.920583 
L 164.751021 106.626842 
L 164.932297 124.985719 
L 165.294851 138.41586 
L 165.476128 117.917456 
L 166.019958 133.686266 
L 166.201235 150.641438 
L 166.563788 130.717866 
L 166.745065 133.292441 
L 166.926341 111.77685 
L 167.107618 114.02356 
L 167.288895 120.903614 
L 167.470172 114.829328 
L 168.014002 134.274986 
L 168.195279 125.699029 
L 168.376555 125.459414 
L 168.557832 120.861705 
L 168.739109 108.588877 
L 169.101662 122.621794 
L 169.282939 124.607721 
L 169.464216 116.72533 
L 169.645492 118.767729 
L 169.826769 118.834324 
L 170.008046 116.532319 
L 170.189323 124.492732 
L 170.370599 123.348689 
L 170.91443 154.085037 
L 171.639537 171.855195 
L 171.820813 166.606679 
L 172.00209 182.370886 
L 172.364643 161.309002 
L 172.727197 189.229265 
L 172.908474 185.033714 
L 173.271027 164.896161 
L 173.452304 180.072239 
L 173.633581 181.856435 
L 173.996134 189.379797 
L 174.177411 196.674079 
L 174.539964 183.165166 
L 174.902518 180.843763 
L 175.083794 195.266397 
L 175.265071 192.891263 
L 175.627625 176.766724 
L 175.808901 176.485024 
L 175.990178 188.285705 
L 176.171455 179.450241 
L 176.352732 183.742099 
L 176.715285 169.685601 
L 176.896562 173.316715 
L 177.077839 180.868601 
L 177.259115 175.457275 
L 177.440392 177.399116 
L 177.621669 177.056214 
L 178.165499 152.339667 
L 178.528052 137.295714 
L 178.890606 149.821149 
L 179.253159 128.019993 
L 179.434436 138.440833 
L 179.615713 142.279435 
L 179.79699 152.471684 
L 179.978266 156.341404 
L 180.159543 144.936179 
L 180.34082 148.607964 
L 180.522096 149.015315 
L 180.703373 161.314479 
L 180.88465 163.872932 
L 181.065927 175.965212 
L 181.247203 171.731697 
L 181.42848 179.417782 
L 181.609757 171.252506 
L 181.791034 169.896139 
L 181.97231 162.841553 
L 182.334864 133.470938 
L 182.516141 132.414949 
L 182.697417 137.74856 
L 182.878694 127.903348 
L 183.059971 129.856129 
L 183.603801 147.923898 
L 183.785078 140.084269 
L 183.966354 122.220665 
L 184.510185 144.974746 
L 184.691461 162.51656 
L 184.872738 161.205157 
L 185.416568 139.382854 
L 185.597845 151.160261 
L 185.960399 144.992359 
L 186.141675 137.579165 
L 186.322952 138.62791 
L 186.504229 155.790764 
L 186.685505 155.435122 
L 186.866782 150.429137 
L 187.229336 165.589268 
L 187.410612 165.597645 
L 187.591889 149.496347 
L 187.773166 158.164992 
L 188.135719 160.907961 
L 188.316996 155.099213 
L 188.67955 117.696137 
L 188.860826 114.068445 
L 189.042103 122.540014 
L 189.22338 119.205968 
L 189.585933 126.432454 
L 189.76721 135.098854 
L 189.948487 113.257959 
L 190.129763 131.554577 
L 190.31104 135.12561 
L 190.492317 127.138082 
L 190.673594 126.622825 
L 190.85487 137.634125 
L 191.036147 131.67801 
L 191.217424 137.289428 
L 191.398701 153.21376 
L 191.579977 151.40477 
L 191.761254 150.937829 
L 191.942531 147.124048 
L 192.123807 148.138816 
L 192.305084 165.748237 
L 192.486361 161.556387 
L 192.667638 165.622127 
L 192.848914 185.375288 
L 193.211468 192.237321 
L 193.574021 199.715919 
L 193.755298 196.305246 
L 193.936575 184.172436 
L 194.117852 182.156542 
L 194.299128 174.82734 
L 194.480405 162.876889 
L 194.661682 171.154393 
L 195.024235 144.168924 
L 195.386789 167.777992 
L 195.749342 161.076431 
L 195.930619 161.341972 
L 196.111896 164.924752 
L 196.293172 171.754724 
L 196.474449 163.330584 
L 196.837003 180.877799 
L 197.199556 173.33841 
L 197.380833 159.96928 
L 197.562109 165.576716 
L 197.743386 178.166145 
L 197.924663 178.287767 
L 198.468493 162.15977 
L 198.64977 172.896238 
L 198.831047 176.704975 
L 199.012323 161.946723 
L 199.1936 160.760576 
L 199.374877 160.561442 
L 199.556154 171.705017 
L 199.73743 169.632328 
L 199.918707 171.169179 
L 200.099984 167.081889 
L 200.28126 157.041587 
L 200.462537 137.88303 
L 200.825091 158.72083 
L 201.368921 125.52614 
L 201.731474 143.008439 
L 201.912751 147.360191 
L 202.094028 157.652109 
L 202.275305 159.639313 
L 202.456581 156.800293 
L 202.637858 156.361503 
L 202.819135 149.833007 
L 203.000412 152.348514 
L 203.181688 159.074812 
L 203.362965 155.616822 
L 203.906795 120.033917 
L 204.088072 129.043849 
L 204.450625 165.492256 
L 204.813179 144.485942 
L 204.994456 150.444873 
L 205.175732 146.637194 
L 205.357009 156.044172 
L 205.538286 154.491742 
L 205.719563 160.725563 
L 205.900839 154.219691 
L 206.082116 160.703091 
L 206.263393 152.149519 
L 206.625946 162.156802 
L 206.807223 150.957852 
L 206.9885 150.124427 
L 207.169776 156.753641 
L 207.53233 152.029272 
L 207.713607 161.900957 
L 207.894883 147.878724 
L 208.07616 123.090447 
L 208.257437 148.73367 
L 208.438714 149.54688 
L 208.61999 144.893735 
L 208.982544 149.864881 
L 209.16382 151.419301 
L 209.345097 157.470956 
L 209.707651 151.706948 
L 210.070204 131.512947 
L 210.432758 148.813211 
L 210.614034 134.904318 
L 210.976588 129.690608 
L 211.157865 129.82509 
L 211.339141 136.220384 
L 211.520418 136.804354 
L 211.882971 128.04548 
L 212.245525 110.216307 
L 212.789355 132.393773 
L 212.970632 133.273901 
L 213.151909 128.404564 
L 213.333185 129.211963 
L 213.695739 154.016049 
L 213.877016 157.558854 
L 214.058292 167.311564 
L 214.239569 157.124568 
L 214.420846 155.700261 
L 214.602122 166.246697 
L 214.783399 162.043376 
L 214.964676 168.512697 
L 215.145953 170.785461 
L 215.327229 155.221342 
L 215.508506 149.332057 
L 215.689783 137.349545 
L 215.87106 141.199067 
L 216.052336 148.584605 
L 216.233613 149.769083 
L 216.41489 145.681876 
L 216.596167 145.463874 
L 217.139997 155.746522 
L 217.321273 152.57166 
L 217.50255 146.087927 
L 217.683827 123.473231 
L 218.227657 141.751797 
L 218.590211 128.940227 
L 218.771487 133.866622 
L 218.952764 125.109588 
L 219.315318 166.882092 
L 219.677871 149.10228 
L 220.040424 145.359601 
L 220.402978 150.311787 
L 220.765531 164.309236 
L 220.946808 168.309901 
L 221.128085 158.298852 
L 221.309362 158.077306 
L 221.490638 158.504652 
L 221.671915 153.269629 
L 221.853192 154.089808 
L 222.034469 149.687123 
L 222.215745 156.318282 
L 222.397022 152.289956 
L 222.578299 152.278808 
L 222.759576 158.451172 
L 222.940852 154.754643 
L 223.122129 134.518518 
L 223.484682 128.510021 
L 223.847236 164.685372 
L 224.028513 164.012483 
L 224.209789 159.071003 
L 224.391066 159.26208 
L 224.572343 158.908656 
L 224.75362 162.121682 
L 224.934896 163.012077 
L 225.116173 155.739219 
L 225.29745 166.592814 
L 225.478727 160.279845 
L 225.660003 145.557475 
L 225.84128 143.946183 
L 226.022557 146.422049 
L 226.203833 144.62788 
L 226.38511 137.251699 
L 226.566387 145.862631 
L 226.747664 125.556295 
L 227.110217 147.182727 
L 227.291494 139.229784 
L 227.472771 137.424795 
L 227.654047 138.161902 
L 227.835324 145.337831 
L 228.016601 141.415089 
L 228.197878 144.108318 
L 228.379154 142.26052 
L 228.560431 145.480536 
L 228.922984 163.432068 
L 229.104261 159.349915 
L 229.285538 171.423712 
L 229.466815 171.708152 
L 229.648091 177.625504 
L 230.010645 148.017821 
L 230.191922 147.203114 
L 230.373198 148.933722 
L 230.735752 162.523772 
L 230.917029 163.697673 
L 231.098305 159.668346 
L 231.279582 167.339557 
L 231.460859 136.245625 
L 231.642135 151.644238 
L 232.004689 160.64571 
L 232.185966 150.888429 
L 232.367242 149.738407 
L 232.548519 163.300769 
L 232.729796 164.050168 
L 233.273626 158.705685 
L 233.454903 158.690867 
L 233.63618 173.714637 
L 233.817456 174.839155 
L 233.998733 166.989084 
L 234.361286 141.070947 
L 234.542563 145.14846 
L 234.72384 143.075398 
L 234.905117 132.840704 
L 235.086393 140.933162 
L 235.448947 143.145812 
L 235.630224 145.147694 
L 235.8115 129.370222 
L 236.174054 138.587792 
L 236.355331 116.561787 
L 236.899161 135.909647 
L 237.080437 147.493418 
L 237.261714 138.793855 
L 237.442991 148.067021 
L 237.624268 146.20875 
L 237.805544 151.988736 
L 237.986821 151.490822 
L 238.168098 150.226441 
L 238.530651 130.707308 
L 238.893205 140.257202 
L 239.074482 134.771017 
L 239.255758 125.906376 
L 239.437035 123.411666 
L 239.618312 134.327277 
L 239.980865 142.270812 
L 240.524695 129.407504 
L 240.705972 116.547551 
L 240.887249 115.039012 
L 241.068526 125.787346 
L 241.249802 115.354041 
L 241.431079 117.166106 
L 241.612356 120.504368 
L 241.793633 108.824005 
L 242.156186 130.581585 
L 242.337463 111.475055 
L 242.51874 120.826461 
L 242.700016 121.813605 
L 242.881293 143.093387 
L 243.425123 165.002714 
L 243.6064 155.680166 
L 243.787677 154.179696 
L 244.15023 145.908645 
L 244.331507 129.195047 
L 244.512784 126.592304 
L 244.69406 135.846131 
L 244.875337 153.818323 
L 245.237891 147.453223 
L 245.419167 149.061514 
L 245.600444 171.408595 
L 245.781721 178.1609 
L 245.962997 172.166993 
L 246.144274 173.116735 
L 246.325551 175.806862 
L 246.506828 168.518069 
L 246.869381 145.535417 
L 247.050658 143.295216 
L 247.231935 153.586757 
L 247.413211 175.210644 
L 247.594488 162.645661 
L 247.775765 163.484918 
L 247.957042 157.038081 
L 248.138318 156.104601 
L 248.319595 151.646811 
L 248.500872 158.377776 
L 248.682148 156.236965 
L 249.044702 137.427488 
L 249.407255 175.201984 
L 249.588532 183.121194 
L 249.769809 170.66675 
L 249.951086 167.103695 
L 250.132362 160.104587 
L 250.313639 157.600751 
L 250.494916 144.205978 
L 250.676193 149.24271 
L 250.857469 118.859556 
L 251.038746 139.244582 
L 251.220023 140.340773 
L 251.763853 168.025955 
L 251.94513 164.93306 
L 252.126406 153.565094 
L 252.48896 168.905541 
L 252.670237 161.112141 
L 252.851513 144.141391 
L 253.03279 160.860101 
L 253.214067 156.753422 
L 253.395344 156.637399 
L 253.57662 158.623985 
L 253.757897 161.871225 
L 253.939174 159.881497 
L 254.301727 163.357599 
L 254.483004 167.166899 
L 255.026834 145.367691 
L 255.208111 139.452683 
L 255.389388 126.895802 
L 256.295771 197.555056 
L 256.477048 191.259339 
L 256.658325 190.162016 
L 256.839601 183.797864 
L 257.020878 164.158189 
L 257.202155 157.884804 
L 257.383432 167.846617 
L 257.564708 169.293371 
L 257.745985 165.695862 
L 257.927262 164.925937 
L 258.108539 168.083145 
L 258.289815 151.573276 
L 258.652369 143.853373 
L 258.833646 145.302541 
L 259.014922 148.225921 
L 259.196199 140.872295 
L 259.558753 144.230284 
L 259.740029 160.433688 
L 259.921306 164.445015 
L 260.102583 158.875359 
L 260.283859 160.122791 
L 261.008966 131.510207 
L 261.190243 141.087021 
L 261.37152 137.464104 
L 261.552797 153.487343 
L 261.734073 145.298713 
L 261.91535 152.88055 
L 262.277904 136.677542 
L 262.45918 139.653732 
L 262.821734 152.70388 
L 263.00301 165.039111 
L 263.184287 165.293181 
L 263.365564 170.08649 
L 263.546841 179.57604 
L 263.728117 167.179739 
L 263.909394 144.067669 
L 264.090671 139.215928 
L 264.453224 167.672308 
L 264.815778 158.356975 
L 264.997055 143.659806 
L 265.178331 140.739628 
L 265.359608 144.945538 
L 265.540885 154.270638 
L 265.722161 156.472887 
L 265.903438 146.059028 
L 266.265992 163.385488 
L 266.628545 145.717158 
L 266.809822 154.301686 
L 266.991099 147.383305 
L 267.172375 147.429412 
L 267.353652 143.426123 
L 267.534929 151.383531 
L 267.716206 146.68558 
L 267.897482 137.080094 
L 268.078759 136.923451 
L 268.260036 134.894415 
L 268.441312 143.112135 
L 268.622589 131.94849 
L 268.803866 136.958181 
L 268.985143 137.44635 
L 269.166419 137.310532 
L 269.528973 161.63285 
L 269.71025 155.225358 
L 269.891526 137.399962 
L 270.072803 142.41881 
L 270.435357 161.781787 
L 270.616633 160.013645 
L 270.79791 153.072007 
L 270.979187 159.347262 
L 271.34174 124.861301 
L 271.523017 123.759251 
L 271.704294 115.775851 
L 271.88557 114.650328 
L 272.248124 138.338117 
L 272.429401 141.581843 
L 272.610677 139.074099 
L 272.791954 123.685014 
L 272.973231 137.795809 
L 273.154508 137.54635 
L 273.335784 143.32677 
L 273.698338 169.820973 
L 273.879614 184.37045 
L 274.242168 165.193891 
L 274.423445 178.495637 
L 274.604721 172.719468 
L 274.785998 174.60082 
L 274.967275 170.485397 
L 275.148552 142.768528 
L 275.329828 146.71605 
L 275.511105 155.200277 
L 276.054935 128.240658 
L 276.236212 122.675158 
L 276.598765 141.340226 
L 276.780042 153.764575 
L 276.961319 152.363683 
L 277.142596 138.304816 
L 277.323872 147.118775 
L 277.505149 141.630027 
L 277.686426 131.521483 
L 277.867703 141.601767 
L 278.048979 143.07284 
L 278.230256 133.741589 
L 278.411533 149.635181 
L 278.59281 150.80274 
L 278.774086 154.848716 
L 278.955363 139.906259 
L 279.13664 138.534663 
L 279.317917 134.192137 
L 279.499193 146.761762 
L 279.68047 147.551129 
L 279.861747 146.678815 
L 280.043023 162.69128 
L 280.405577 154.201981 
L 280.586854 155.577893 
L 280.76813 164.04957 
L 280.949407 156.152078 
L 281.130684 162.758377 
L 281.311961 147.360967 
L 281.493237 152.053982 
L 281.674514 149.755054 
L 281.855791 143.323314 
L 282.037068 145.262288 
L 282.218344 150.633114 
L 282.399621 145.820282 
L 282.580898 137.996013 
L 282.943451 154.701913 
L 283.124728 155.732219 
L 283.306005 142.679389 
L 283.487281 147.396897 
L 283.668558 169.55419 
L 283.849835 175.141843 
L 284.031112 174.471244 
L 284.393665 156.10003 
L 284.574942 167.941918 
L 284.756219 168.349077 
L 284.937495 157.379053 
L 285.118772 157.276456 
L 285.300049 170.345128 
L 285.481325 168.750669 
L 285.843879 137.757434 
L 286.025156 147.928997 
L 286.206432 149.205326 
L 286.387709 145.419437 
L 286.568986 136.885124 
L 286.750263 158.068993 
L 286.931539 159.174736 
L 287.112816 161.089733 
L 287.294093 159.490886 
L 287.47537 163.164045 
L 287.837923 134.012823 
L 288.200476 129.659568 
L 288.381753 132.733788 
L 288.744307 178.605341 
L 288.925583 176.348193 
L 289.10686 186.645883 
L 289.469414 175.936119 
L 289.65069 181.088057 
L 289.831967 159.955483 
L 290.013244 157.163397 
L 290.194521 141.300511 
L 290.375797 151.816162 
L 290.557074 145.172067 
L 290.738351 160.594942 
L 290.919627 162.109947 
L 291.100904 154.819635 
L 291.282181 132.124115 
L 291.463458 132.823321 
L 291.644734 138.170701 
L 291.826011 138.508533 
L 292.007288 141.029724 
L 292.551118 129.6905 
L 292.913672 144.571584 
L 293.094948 157.780648 
L 293.457502 142.3809 
L 293.820055 136.393393 
L 294.001332 128.554327 
L 294.182609 131.572769 
L 294.363885 145.379591 
L 294.545162 137.175627 
L 294.726439 136.402072 
L 295.088992 151.866563 
L 295.270269 148.002603 
L 295.451546 147.734006 
L 295.632823 158.788071 
L 295.814099 162.555605 
L 295.995376 160.242755 
L 296.176653 154.871551 
L 296.35793 162.628498 
L 296.539206 150.012704 
L 296.90176 143.318979 
L 297.083036 132.01625 
L 297.44559 178.510646 
L 297.626867 182.467025 
L 298.170697 154.642123 
L 298.53325 169.169176 
L 298.714527 158.069057 
L 298.895804 162.337704 
L 299.077081 150.711831 
L 299.258357 148.791993 
L 299.439634 144.823364 
L 299.620911 153.985859 
L 299.802187 153.564591 
L 299.983464 147.057229 
L 300.164741 145.902593 
L 300.346018 137.555875 
L 300.527294 138.416395 
L 300.708571 130.657214 
L 300.889848 109.019243 
L 301.071125 119.776129 
L 301.252401 140.707056 
L 301.433678 148.144993 
L 301.796232 134.950033 
L 301.977508 141.247693 
L 302.158785 135.680992 
L 302.521338 149.556144 
L 302.702615 148.09012 
L 302.883892 147.746658 
L 303.065169 145.354963 
L 303.246445 146.267994 
L 303.427722 162.563307 
L 303.608999 164.853399 
L 304.152829 135.435912 
L 304.515383 136.753271 
L 304.877936 143.288804 
L 305.059213 141.364832 
L 305.240489 130.958243 
L 305.603043 150.17123 
L 305.78432 138.863046 
L 305.965596 142.455236 
L 306.146873 160.798628 
L 306.32815 160.280743 
L 306.690703 151.724997 
L 306.87198 155.151484 
L 307.053257 155.857511 
L 307.41581 143.926677 
L 307.597087 151.217977 
L 307.778364 140.779279 
L 307.95964 143.025168 
L 308.140917 157.64041 
L 308.503471 140.923629 
L 308.684747 141.205824 
L 309.047301 136.927101 
L 309.228578 138.194054 
L 309.409854 136.861543 
L 309.591131 136.786927 
L 309.953685 131.585202 
L 310.134961 135.056063 
L 310.316238 153.004646 
L 310.497515 149.150344 
L 310.678791 138.563046 
L 310.860068 136.3007 
L 311.041345 131.527965 
L 311.222622 120.487468 
L 311.403898 121.171342 
L 311.766452 139.950198 
L 311.947729 134.212815 
L 312.129005 132.789864 
L 312.310282 136.804928 
L 312.491559 123.025304 
L 312.672836 117.859297 
L 312.854112 108.496512 
L 313.216666 118.170924 
L 313.397942 134.555649 
L 313.579219 132.76101 
L 313.760496 128.048436 
L 313.941773 129.10539 
L 314.123049 128.240566 
L 314.66688 158.193037 
L 314.848156 155.395132 
L 315.029433 163.586561 
L 315.21071 154.927887 
L 315.391987 158.544969 
L 315.573263 154.047209 
L 315.75454 157.464881 
L 315.935817 144.951565 
L 316.117094 144.282276 
L 316.29837 158.632461 
L 316.479647 157.79983 
L 316.660924 137.021724 
L 316.8422 139.842687 
L 317.023477 177.004664 
L 317.748584 145.877373 
L 317.929861 151.31907 
L 318.111138 151.736707 
L 318.292414 164.21713 
L 318.473691 147.695992 
L 318.836245 161.845139 
L 319.017521 150.118532 
L 319.198798 152.487052 
L 319.561351 119.56303 
L 319.742628 124.875473 
L 319.923905 141.479135 
L 320.105182 145.580376 
L 320.467735 133.750631 
L 320.649012 139.5861 
L 320.830289 127.566234 
L 321.011565 127.246789 
L 321.192842 130.280372 
L 321.374119 127.97362 
L 321.555396 123.562681 
L 321.736672 112.596618 
L 322.280502 147.508866 
L 322.461779 144.754117 
L 322.643056 140.115935 
L 322.824333 162.236488 
L 323.005609 151.935415 
L 323.186886 150.140011 
L 323.368163 164.116611 
L 323.730716 142.637913 
L 323.911993 142.72067 
L 324.274547 153.971209 
L 324.455823 148.461057 
L 324.6371 148.695271 
L 324.999653 121.618907 
L 325.18093 144.644497 
L 325.362207 145.774759 
L 325.72476 154.347464 
L 326.087314 136.390338 
L 326.268591 125.048014 
L 326.449867 130.489993 
L 326.631144 147.264603 
L 327.356251 104.654692 
L 327.537528 117.380848 
L 327.718804 141.431526 
L 328.081358 153.280642 
L 328.262635 144.497293 
L 328.625188 153.287993 
L 328.806465 144.400733 
L 328.987742 148.009271 
L 329.169018 142.266877 
L 329.350295 125.621466 
L 329.531572 136.499109 
L 329.712849 134.55653 
L 329.894125 126.194909 
L 330.075402 125.356307 
L 330.256679 126.079505 
L 330.619232 139.993579 
L 330.800509 136.45298 
L 330.981786 126.099268 
L 331.163062 134.694403 
L 331.344339 136.240212 
L 331.525616 125.38826 
L 331.888169 134.426141 
L 332.069446 134.352578 
L 332.250723 129.71302 
L 332.432 130.126561 
L 332.613276 122.938594 
L 332.794553 122.68596 
L 333.157107 137.978794 
L 333.338383 130.50775 
L 333.51966 131.191201 
L 333.700937 127.221226 
L 334.244767 150.931415 
L 334.426044 144.943345 
L 334.60732 143.924593 
L 334.788597 138.942345 
L 334.969874 145.157894 
L 335.332427 167.471211 
L 335.513704 164.399751 
L 335.694981 142.952306 
L 335.876258 152.934689 
L 336.057534 151.20211 
L 336.238811 157.883313 
L 336.420088 155.628122 
L 336.601364 158.733573 
L 336.782641 164.029367 
L 337.145195 140.598365 
L 337.689025 169.482378 
L 338.051578 157.093221 
L 338.232855 153.459346 
L 338.595409 138.436358 
L 338.776685 148.926043 
L 338.957962 149.750896 
L 339.139239 149.760138 
L 339.320515 142.924546 
L 339.501792 151.905077 
L 339.683069 154.42285 
L 339.864346 147.292871 
L 340.045622 149.229012 
L 340.226899 138.346318 
L 340.408176 135.56982 
L 340.770729 115.310405 
L 340.952006 125.553822 
L 341.133283 146.115904 
L 341.31456 146.557188 
L 341.495836 144.333894 
L 341.85839 135.028562 
L 342.039666 119.251966 
L 342.40222 140.490519 
L 342.583497 135.421202 
L 342.764773 144.874717 
L 342.94605 144.212541 
L 343.127327 153.965664 
L 343.308604 145.21803 
L 343.48988 143.224901 
L 343.671157 145.500706 
L 343.852434 137.436797 
L 344.033711 149.149024 
L 344.214987 142.04476 
L 344.577541 159.809166 
L 344.758817 144.942458 
L 344.940094 147.178798 
L 345.121371 159.093555 
L 345.302648 184.313544 
L 345.483924 185.885602 
L 345.665201 168.293467 
L 345.846478 162.657476 
L 346.027755 163.032495 
L 346.209031 161.57931 
L 346.390308 154.416532 
L 346.752862 113.615152 
L 346.934138 138.512729 
L 347.115415 138.108094 
L 347.296692 143.340438 
L 347.659245 136.397932 
L 348.021799 108.016252 
L 348.384352 141.947506 
L 348.746906 134.964176 
L 348.928182 141.49726 
L 349.109459 143.289283 
L 349.290736 149.218427 
L 349.472013 144.435704 
L 349.653289 148.006471 
L 349.834566 144.420815 
L 350.015843 138.628385 
L 350.197119 141.496709 
L 350.559673 151.550776 
L 350.74095 149.386232 
L 351.103503 133.535008 
L 351.466057 145.546557 
L 351.647333 144.502959 
L 352.191164 176.131588 
L 352.37244 193.677829 
L 352.734994 169.517842 
L 352.916271 177.879619 
L 353.097547 167.971187 
L 353.278824 149.250156 
L 353.641377 158.428428 
L 353.822654 157.133793 
L 354.003931 158.208158 
L 354.185208 156.159652 
L 354.366484 156.030356 
L 354.729038 148.011372 
L 354.910315 147.559891 
L 355.091591 147.708538 
L 355.272868 148.184105 
L 355.454145 154.514118 
L 355.635422 131.137964 
L 355.816698 139.124611 
L 356.179252 165.444129 
L 356.541805 130.206726 
L 356.904359 139.278283 
L 357.085635 140.963923 
L 357.266912 134.308658 
L 357.448189 138.089455 
L 357.629466 107.726854 
L 358.354573 156.955707 
L 358.717126 133.085616 
L 358.898403 135.54306 
L 359.079679 131.21921 
L 359.442233 149.549706 
L 359.804786 125.324972 
L 359.986063 131.104448 
L 360.348617 153.832618 
L 360.71117 107.938245 
L 361.073724 118.604935 
L 361.255 120.707184 
L 361.436277 109.295582 
L 361.617554 108.930196 
L 361.79883 120.541415 
L 362.161384 108.812223 
L 362.342661 107.51963 
L 362.523937 113.666168 
L 362.705214 115.641281 
L 362.886491 102.953285 
L 363.249044 111.026059 
L 363.430321 111.582961 
L 363.611598 116.108849 
L 363.974151 108.617312 
L 364.155428 108.055014 
L 364.336705 100.671526 
L 364.517981 112.151386 
L 364.699258 111.745726 
L 364.880535 111.874022 
L 365.243088 100.381629 
L 365.605642 123.935502 
L 365.968195 149.408708 
L 366.149472 152.782325 
L 366.330749 152.593366 
L 366.512026 153.945629 
L 366.693302 150.328451 
L 366.874579 152.670395 
L 367.055856 144.582506 
L 367.237132 144.472419 
L 367.599686 133.772074 
L 367.780963 138.237224 
L 368.143516 154.910066 
L 368.324793 149.219073 
L 368.50607 117.83655 
L 368.687346 124.810206 
L 368.868623 138.124165 
L 369.231177 124.992456 
L 369.412453 148.143124 
L 369.59373 151.685389 
L 369.775007 142.529695 
L 369.956284 144.396405 
L 370.13756 139.526529 
L 370.318837 153.867499 
L 370.500114 155.106791 
L 370.68139 132.142292 
L 371.225221 145.087556 
L 371.587774 165.043702 
L 371.769051 170.572422 
L 371.950328 170.649284 
L 372.131604 168.509207 
L 372.312881 162.478867 
L 372.494158 165.763649 
L 372.675435 152.198747 
L 372.856711 125.885771 
L 373.219265 130.267788 
L 373.581818 153.732056 
L 373.581818 153.732056 
" style="fill:none;stroke:#ffa500;stroke-linecap:square;"/>
   </g>
   <g id="line2d_15">
    <path clip-path="url(#p1df6d54740)" d="M 69.218182 112.742743 
L 69.399459 100.826087 
L 69.762012 116.685328 
L 69.943289 117.654216 
L 70.124565 115.601546 
L 70.305842 131.884919 
L 70.668396 117.474754 
L 71.030949 140.982023 
L 71.393503 136.671224 
L 71.756056 158.141284 
L 71.937333 136.301945 
L 72.11861 137.191996 
L 72.299886 135.65235 
L 72.481163 128.398745 
L 72.66244 129.747833 
L 72.843716 144.934481 
L 73.024993 148.390027 
L 73.20627 158.913195 
L 73.387547 151.8914 
L 73.568823 137.755643 
L 73.7501 104.215499 
L 73.931377 102.572686 
L 74.112654 116.770929 
L 74.29393 118.412075 
L 74.475207 123.062885 
L 74.837761 108.319718 
L 75.562868 80.091103 
L 75.744144 96.190613 
L 75.925421 102.184189 
L 76.106698 123.605966 
L 76.287974 127.111816 
L 76.469251 136.317289 
L 76.650528 139.483962 
L 77.013081 199.021292 
L 77.375635 168.0201 
L 77.556912 179.726365 
L 77.738188 182.534002 
L 77.919465 189.276012 
L 78.282019 158.825795 
L 78.463295 138.867597 
L 78.644572 133.716823 
L 79.007125 110.483296 
L 79.732232 55.212129 
L 80.276063 106.902619 
L 80.638616 98.79709 
L 81.363723 160.424937 
L 81.545 164.761631 
L 82.08883 184.60265 
L 82.63266 151.421319 
L 82.813937 136.130336 
L 82.995214 139.408999 
L 83.357767 137.37599 
L 83.539044 134.499361 
L 83.720321 138.000125 
L 83.901597 144.840231 
L 84.082874 142.025201 
L 84.264151 152.541023 
L 84.445427 148.449331 
L 84.626704 147.579881 
L 84.807981 144.702433 
L 85.170534 131.154725 
L 85.533088 126.14442 
L 85.714365 119.117496 
L 85.895641 104.579665 
L 86.076918 104.585568 
L 86.258195 97.460646 
L 86.620748 112.799932 
L 86.802025 111.600686 
L 87.164578 96.923053 
L 87.345855 103.216018 
L 88.252239 160.630705 
L 88.614792 170.749312 
L 88.977346 149.520787 
L 89.158623 176.208657 
L 89.339899 173.409767 
L 89.521176 179.154705 
L 89.702453 170.060811 
L 89.883729 168.036154 
L 90.065006 167.3187 
L 90.246283 175.698901 
L 90.42756 171.702668 
L 90.790113 191.161975 
L 91.152667 166.758041 
L 91.51522 140.351917 
L 91.877774 118.875591 
L 92.05905 108.130495 
L 92.240327 106.688431 
L 92.421604 106.70634 
L 92.602881 107.012742 
L 92.784157 101.291924 
L 92.965434 105.122005 
L 93.146711 97.358935 
L 93.327987 97.124281 
L 93.690541 121.81337 
L 93.871818 136.415701 
L 94.053094 133.633867 
L 94.415648 155.897122 
L 94.596925 148.545683 
L 94.778201 153.198655 
L 95.140755 166.338524 
L 95.503308 142.194312 
L 95.684585 152.912097 
L 96.228415 109.82154 
L 96.772245 82.379243 
L 97.134799 68.299875 
L 97.316076 72.001879 
L 97.497352 70.394007 
L 97.678629 61.069492 
L 98.041183 80.257829 
L 98.585013 159.332285 
L 98.766289 175.543327 
L 98.947566 165.040463 
L 99.31012 174.109276 
L 99.491396 173.883593 
L 99.672673 191.585014 
L 99.85395 222.326495 
L 100.035227 226.277832 
L 100.216503 220.791814 
L 100.39778 226.791652 
L 100.579057 224.258846 
L 100.760334 224.901102 
L 101.122887 204.751216 
L 101.304164 194.96605 
L 101.48544 194.663829 
L 101.666717 193.331892 
L 101.847994 186.21032 
L 102.029271 170.428447 
L 102.210547 175.575651 
L 102.391824 157.76749 
L 102.573101 128.860266 
L 102.935654 109.876679 
L 103.116931 109.979443 
L 103.298208 108.805279 
L 103.479485 101.498018 
L 103.660761 108.06599 
L 103.842038 119.495657 
L 104.023315 121.368621 
L 104.385868 174.384287 
L 104.567145 163.269278 
L 104.748422 184.027604 
L 104.929698 188.986554 
L 105.110975 190.051888 
L 105.292252 184.159629 
L 105.836082 149.549367 
L 106.198636 153.351433 
L 106.379912 149.110675 
L 106.561189 156.808773 
L 106.742466 156.568379 
L 106.923742 162.887207 
L 107.105019 161.420868 
L 107.286296 163.343595 
L 107.467573 177.686236 
L 107.648849 160.208879 
L 108.011403 170.449188 
L 108.19268 174.029188 
L 108.373956 163.923548 
L 108.555233 163.450767 
L 108.73651 162.50096 
L 108.917787 154.18345 
L 109.461617 107.593736 
L 109.642893 116.83456 
L 109.82417 114.536101 
L 110.005447 100.12452 
L 110.186724 101.331212 
L 110.368 99.74057 
L 110.549277 94.375768 
L 110.911831 116.207286 
L 111.818214 201.885077 
L 111.999491 188.918228 
L 112.180768 186.919585 
L 112.543321 199.131897 
L 112.724598 193.346809 
L 112.905875 191.264723 
L 113.087151 192.079449 
L 113.268428 173.477491 
L 113.449705 178.244989 
L 113.630982 177.68606 
L 113.812258 178.207854 
L 113.993535 176.467003 
L 114.174812 159.125911 
L 114.356089 155.484741 
L 114.537365 169.834227 
L 114.718642 173.239989 
L 114.899919 162.142531 
L 115.443749 178.069723 
L 115.625026 178.238124 
L 115.806302 161.017494 
L 115.987579 157.573453 
L 116.168856 159.930877 
L 116.350133 158.425006 
L 116.893963 147.755194 
L 117.07524 155.291315 
L 117.256516 147.598331 
L 117.61907 151.451984 
L 118.1629 107.548552 
L 118.70673 70.288626 
L 118.888007 67.728936 
L 119.069284 80.442824 
L 119.25056 74.799493 
L 119.431837 61.781151 
L 119.613114 64.011695 
L 119.794391 74.48718 
L 119.975667 76.054409 
L 120.156944 97.17406 
L 120.338221 135.28266 
L 120.519498 144.435052 
L 120.700774 143.516047 
L 120.882051 145.914237 
L 121.063328 153.682377 
L 121.244604 153.593158 
L 121.425881 155.55795 
L 121.607158 149.951263 
L 121.788435 114.295372 
L 121.969711 124.530082 
L 122.150988 125.448732 
L 122.513542 128.92645 
L 123.238649 146.800072 
L 123.419925 155.174259 
L 123.782479 126.935553 
L 123.963755 123.902632 
L 124.145032 139.060868 
L 124.326309 142.862317 
L 124.507586 135.224294 
L 124.870139 164.337185 
L 125.051416 180.761349 
L 125.232693 180.834442 
L 125.413969 180.125009 
L 125.595246 193.654256 
L 125.776523 194.924767 
L 126.139076 190.120494 
L 126.864183 124.647608 
L 127.226737 99.099272 
L 127.58929 67.073239 
L 128.314397 109.899746 
L 128.495674 114.564484 
L 128.676951 113.527821 
L 128.858227 145.226406 
L 129.220781 173.304195 
L 129.402058 173.184343 
L 129.583334 169.652966 
L 129.764611 173.11023 
L 129.945888 186.67843 
L 130.127164 187.121691 
L 130.308441 182.340931 
L 130.670995 198.395748 
L 130.852271 212.902423 
L 131.214825 199.015309 
L 131.396102 213.993963 
L 131.577378 213.194434 
L 131.939932 236.553524 
L 132.121209 233.096544 
L 132.483762 183.598283 
L 132.665039 190.150847 
L 132.846315 188.334885 
L 133.027592 188.659563 
L 133.390146 153.563084 
L 133.571422 151.900299 
L 133.933976 144.619246 
L 134.115253 145.814767 
L 134.477806 162.688041 
L 134.84036 134.890354 
L 135.021636 145.7074 
L 135.202913 146.80535 
L 135.38419 135.066566 
L 135.565466 132.692956 
L 135.746743 135.957838 
L 135.92802 142.779451 
L 136.109297 139.5876 
L 136.290573 139.197675 
L 137.378234 187.541339 
L 137.559511 187.647039 
L 137.740787 181.100905 
L 137.922064 180.134031 
L 138.103341 176.053964 
L 138.284617 177.276324 
L 138.465894 176.46601 
L 138.647171 189.071354 
L 139.191001 137.077593 
L 139.372278 136.347587 
L 139.553555 133.724669 
L 140.097385 119.946481 
L 140.278662 98.356142 
L 140.822492 109.143913 
L 141.003768 117.489364 
L 141.366322 139.63254 
L 141.547599 136.747495 
L 142.091429 210.188253 
L 142.272706 215.895761 
L 142.453982 228.423936 
L 142.635259 225.126382 
L 142.816536 224.122593 
L 142.997813 226.518149 
L 143.360366 190.999437 
L 143.541643 198.449635 
L 143.722919 195.07163 
L 143.904196 195.928716 
L 144.085473 175.622633 
L 144.26675 172.908547 
L 144.448026 166.208912 
L 144.629303 164.444145 
L 144.81058 157.507189 
L 145.173133 169.465311 
L 145.35441 158.062962 
L 145.535687 164.972648 
L 146.260794 145.909352 
L 146.44207 140.004588 
L 146.623347 146.23819 
L 146.804624 147.731899 
L 146.985901 138.744036 
L 147.167177 145.520805 
L 147.348454 147.167733 
L 147.711008 193.948181 
L 147.892284 198.510024 
L 148.073561 169.022297 
L 148.254838 167.401178 
L 148.436115 168.02371 
L 148.617391 164.080861 
L 149.161222 135.014134 
L 149.342498 138.727651 
L 149.705052 151.804188 
L 150.067605 202.043667 
L 150.248882 191.460727 
L 150.430159 163.334932 
L 150.792712 137.09997 
L 151.155266 99.953166 
L 151.336542 87.831238 
L 151.699096 81.896774 
L 152.061649 67.395484 
L 152.242926 69.265293 
L 152.424203 92.682498 
L 152.605479 98.90961 
L 152.786756 92.962782 
L 152.968033 80.128716 
L 153.14931 83.618882 
L 153.330586 84.402576 
L 153.69314 70.226203 
L 153.874417 71.074035 
L 154.055693 81.229509 
L 154.23697 84.009772 
L 154.418247 89.469704 
L 154.599524 111.605872 
L 154.962077 185.442876 
L 155.143354 194.572528 
L 155.32463 187.774397 
L 155.868461 151.285649 
L 156.049737 156.71379 
L 156.231014 171.629153 
L 156.412291 159.927343 
L 156.593568 169.962846 
L 156.956121 148.695809 
L 157.137398 147.626943 
L 157.318675 155.284335 
L 157.499951 157.601306 
L 158.043781 134.124797 
L 158.225058 136.706376 
L 158.587612 128.938053 
L 158.768888 134.485803 
L 158.950165 130.605214 
L 159.312719 111.181098 
L 159.493995 106.905794 
L 159.675272 91.877983 
L 159.856549 87.624664 
L 160.037826 72.294728 
L 160.219102 66.451644 
L 160.400379 67.237652 
L 160.581656 61.204588 
L 160.762932 44.443636 
L 160.944209 60.568914 
L 161.488039 157.23373 
L 162.03187 210.327457 
L 162.213146 198.928316 
L 162.394423 207.85169 
L 162.5757 210.573638 
L 162.756977 205.964809 
L 162.938253 216.666532 
L 163.11953 213.270737 
L 163.66336 193.768212 
L 163.844637 183.097195 
L 164.025914 187.330259 
L 164.20719 180.39637 
L 164.388467 193.427819 
L 164.569744 196.47632 
L 164.751021 208.311583 
L 164.932297 199.190371 
L 165.113574 205.100185 
L 165.476128 168.594369 
L 165.838681 134.518805 
L 166.019958 121.489255 
L 166.382511 115.99396 
L 166.745065 102.214423 
L 166.926341 109.707608 
L 167.107618 109.151088 
L 167.288895 110.8411 
L 167.470172 141.577847 
L 167.651448 140.538754 
L 167.832725 140.477887 
L 168.014002 143.025646 
L 168.376555 132.052172 
L 168.557832 131.366148 
L 168.739109 122.792804 
L 169.101662 128.832214 
L 169.464216 162.637624 
L 169.645492 137.418286 
L 169.826769 137.012626 
L 170.370599 177.836864 
L 170.551876 177.237371 
L 170.733153 180.728714 
L 170.91443 176.941037 
L 171.45826 151.156755 
L 171.639537 132.211786 
L 171.820813 136.463135 
L 172.00209 136.990206 
L 172.54592 122.056212 
L 172.727197 104.152119 
L 172.908474 105.269147 
L 173.271027 119.870421 
L 173.452304 121.643632 
L 173.633581 126.922929 
L 173.814857 148.150385 
L 173.996134 187.345296 
L 174.177411 160.443261 
L 174.358688 173.027696 
L 174.539964 193.766098 
L 174.721241 197.194839 
L 174.902518 204.19368 
L 175.083794 197.429014 
L 175.446348 198.694899 
L 175.627625 186.304173 
L 176.171455 209.535666 
L 176.352732 179.066017 
L 176.534008 174.075787 
L 176.715285 177.59454 
L 176.896562 174.745066 
L 177.077839 163.194088 
L 177.259115 163.202775 
L 177.440392 155.485775 
L 177.984222 173.101977 
L 178.346776 138.750119 
L 178.528052 134.562836 
L 178.890606 118.777641 
L 179.071883 117.471224 
L 179.253159 118.785798 
L 179.434436 105.614565 
L 179.79699 69.824225 
L 180.159543 82.574489 
L 180.34082 81.202107 
L 180.522096 82.425592 
L 180.88465 125.706711 
L 181.247203 179.96912 
L 181.42848 176.724428 
L 181.609757 176.714165 
L 181.791034 180.458992 
L 182.153587 197.341981 
L 182.516141 187.348048 
L 182.697417 166.672396 
L 182.878694 165.096245 
L 183.603801 126.072867 
L 184.147631 146.835771 
L 184.510185 111.974744 
L 184.872738 137.457478 
L 185.235292 127.321457 
L 185.416568 133.220413 
L 185.597845 133.423915 
L 185.779122 134.359594 
L 185.960399 139.784784 
L 186.504229 108.063294 
L 187.048059 142.716101 
L 187.410612 115.19672 
L 187.773166 121.856372 
L 187.954443 118.504098 
L 188.135719 117.691745 
L 188.316996 142.075548 
L 188.498273 148.693481 
L 188.860826 125.992312 
L 189.042103 126.288834 
L 189.22338 116.020612 
L 189.404656 130.754881 
L 189.585933 127.777944 
L 189.76721 135.174818 
L 190.492317 193.182317 
L 190.673594 183.897629 
L 190.85487 188.838216 
L 191.036147 181.393426 
L 191.217424 141.167883 
L 191.398701 162.404307 
L 191.579977 151.981907 
L 191.761254 155.295635 
L 192.486361 114.728071 
L 192.667638 124.472689 
L 192.848914 126.144899 
L 193.030191 125.372014 
L 193.211468 140.855371 
L 193.392745 144.744651 
L 193.574021 155.282221 
L 193.755298 153.481898 
L 193.936575 161.979334 
L 194.117852 161.70749 
L 194.661682 129.21929 
L 195.024235 96.74803 
L 195.205512 99.740291 
L 195.386789 94.8787 
L 195.568065 100.384461 
L 195.930619 129.357976 
L 196.655726 223.400485 
L 197.018279 171.40556 
L 197.199556 186.193887 
L 197.380833 191.415655 
L 197.562109 185.784557 
L 197.743386 167.432565 
L 197.924663 174.364998 
L 198.287216 160.576527 
L 198.64977 170.72248 
L 198.831047 172.454058 
L 199.012323 179.263867 
L 199.1936 177.117575 
L 199.556154 164.390932 
L 199.918707 135.126352 
L 200.099984 140.188393 
L 200.28126 139.556931 
L 200.643814 94.519759 
L 201.550198 46.326528 
L 201.731474 52.332389 
L 202.094028 73.811938 
L 203.000412 187.753656 
L 203.181688 201.2362 
L 203.362965 190.600889 
L 203.544242 207.641766 
L 203.725518 209.290523 
L 203.906795 227.516992 
L 204.088072 209.934374 
L 204.269349 173.57844 
L 204.450625 180.350265 
L 204.813179 144.811005 
L 204.994456 143.584096 
L 205.538286 164.649079 
L 205.900839 144.69845 
L 206.082116 153.331015 
L 206.263393 149.148662 
L 206.625946 167.446413 
L 206.807223 170.024538 
L 206.9885 165.958883 
L 207.894883 115.318323 
L 208.07616 129.537419 
L 208.438714 121.266456 
L 208.61999 107.384047 
L 208.801267 113.154333 
L 208.982544 114.960615 
L 209.16382 105.797805 
L 209.345097 108.131851 
L 209.526374 104.805663 
L 210.070204 140.805209 
L 210.251481 144.70796 
L 210.432758 145.155634 
L 210.614034 154.321354 
L 210.976588 192.254313 
L 211.157865 187.231619 
L 211.339141 195.620072 
L 211.520418 214.499008 
L 211.701695 211.809887 
L 211.882971 217.485964 
L 212.064248 215.105087 
L 212.245525 219.52226 
L 212.426802 216.560513 
L 212.608078 217.814112 
L 212.970632 186.374494 
L 213.151909 197.964733 
L 213.877016 137.211246 
L 214.058292 135.027173 
L 214.239569 136.345872 
L 214.420846 122.570635 
L 214.602122 121.394863 
L 214.783399 130.721779 
L 215.145953 172.994802 
L 215.327229 178.421659 
L 215.508506 178.081657 
L 215.87106 125.946953 
L 216.052336 121.060596 
L 216.233613 104.017781 
L 216.41489 100.019777 
L 216.596167 87.799169 
L 216.95872 89.300265 
L 217.139997 94.84683 
L 217.321273 87.977821 
L 217.50255 90.585175 
L 218.227657 128.286508 
L 218.408934 116.74245 
L 218.590211 115.15375 
L 218.952764 119.37662 
L 219.315318 149.090903 
L 219.677871 161.880148 
L 219.859148 148.46057 
L 220.221701 196.5608 
L 220.402978 195.435078 
L 220.584255 193.137484 
L 220.765531 198.599051 
L 221.128085 171.907538 
L 221.309362 164.935916 
L 221.490638 167.603172 
L 221.671915 161.290239 
L 221.853192 142.931733 
L 222.034469 154.131721 
L 222.215745 143.835028 
L 222.397022 145.832162 
L 222.940852 168.563516 
L 223.122129 169.394129 
L 223.303406 165.248987 
L 223.484682 148.798845 
L 223.665959 145.619056 
L 224.028513 176.765033 
L 224.934896 119.761339 
L 225.116173 113.75342 
L 225.29745 112.682853 
L 225.478727 116.750934 
L 225.84128 109.752161 
L 226.022557 86.082604 
L 226.203833 91.539664 
L 226.92894 154.002204 
L 227.110217 156.299902 
L 227.472771 141.848179 
L 227.654047 146.873199 
L 227.835324 147.601959 
L 228.016601 154.439443 
L 228.197878 168.385949 
L 228.379154 195.063613 
L 228.560431 185.134364 
L 228.741708 194.899719 
L 229.104261 242.116364 
L 229.466815 219.852482 
L 229.648091 220.343687 
L 229.829368 240.80102 
L 230.010645 239.754592 
L 230.191922 208.380188 
L 230.373198 208.599127 
L 230.735752 183.340639 
L 231.460859 140.28322 
L 231.642135 139.288174 
L 231.823412 143.459429 
L 232.185966 124.185891 
L 232.367242 126.473988 
L 232.548519 138.514352 
L 232.911073 133.136432 
L 233.454903 146.351745 
L 233.63618 159.38555 
L 233.817456 158.708301 
L 234.18001 174.615562 
L 234.72384 130.546656 
L 234.905117 151.285621 
L 235.086393 154.981591 
L 235.26767 162.844389 
L 235.448947 158.488434 
L 235.630224 160.982521 
L 235.8115 165.850032 
L 235.992777 154.975799 
L 236.174054 156.139039 
L 236.355331 165.961543 
L 236.536607 167.357187 
L 236.899161 137.316339 
L 237.080437 130.900407 
L 237.261714 133.843643 
L 237.442991 131.818356 
L 237.986821 84.297395 
L 238.168098 86.927365 
L 238.349375 87.932111 
L 238.530651 82.8312 
L 238.711928 88.271746 
L 239.074482 122.944294 
L 239.255758 122.559399 
L 239.618312 100.635628 
L 239.980865 110.69535 
L 240.524695 150.852854 
L 240.705972 152.715061 
L 240.887249 148.909091 
L 241.068526 152.000203 
L 241.249802 147.156501 
L 241.612356 160.751011 
L 241.974909 151.150895 
L 242.156186 129.833434 
L 242.337463 129.889092 
L 242.51874 122.339073 
L 242.700016 125.644165 
L 242.881293 123.693294 
L 243.243846 113.575824 
L 243.6064 120.08415 
L 244.331507 185.47376 
L 244.512784 180.189103 
L 244.875337 198.264042 
L 245.237891 193.721425 
L 245.600444 227.09862 
L 245.781721 227.516075 
L 246.144274 188.039006 
L 246.325551 186.110603 
L 246.506828 178.877165 
L 246.688104 166.077031 
L 246.869381 183.060862 
L 247.231935 168.721372 
L 247.413211 157.135716 
L 247.594488 170.44985 
L 247.775765 167.855623 
L 248.138318 154.898554 
L 248.500872 115.221191 
L 248.863425 83.87328 
L 249.044702 75.826735 
L 249.225979 73.514782 
L 249.407255 79.880302 
L 249.588532 76.248218 
L 249.769809 82.228671 
L 249.951086 71.117511 
L 250.132362 73.398353 
L 250.313639 96.466669 
L 250.494916 97.122487 
L 250.676193 92.211556 
L 251.038746 110.36173 
L 251.401299 79.869771 
L 251.582576 80.086755 
L 251.763853 85.671173 
L 251.94513 109.012669 
L 252.126406 112.586833 
L 252.307683 104.734186 
L 252.48896 121.114001 
L 253.03279 201.220126 
L 253.214067 201.014829 
L 253.395344 195.069556 
L 253.57662 202.227465 
L 253.757897 189.297551 
L 253.939174 200.973387 
L 254.12045 199.619193 
L 254.301727 231.808044 
L 255.026834 166.727787 
L 255.208111 159.879016 
L 255.570664 140.54958 
L 255.751941 137.301398 
L 255.933218 139.484138 
L 256.114495 134.686453 
L 256.295771 137.159768 
L 256.477048 156.981825 
L 256.658325 136.409878 
L 257.020878 146.447172 
L 257.202155 139.677903 
L 257.383432 137.151368 
L 257.564708 139.038284 
L 257.745985 130.927075 
L 257.927262 144.09202 
L 258.289815 122.586123 
L 258.471092 124.072952 
L 258.652369 144.79956 
L 259.196199 165.628286 
L 259.377476 184.177402 
L 259.558753 183.54044 
L 259.740029 187.631962 
L 259.921306 177.387844 
L 260.102583 180.982868 
L 260.283859 176.41115 
L 260.465136 180.926341 
L 260.82769 154.426667 
L 261.008966 155.976449 
L 261.37152 131.485182 
L 261.552797 126.447687 
L 261.734073 125.936674 
L 261.91535 118.10567 
L 262.096627 121.000024 
L 262.45918 148.718616 
L 262.640457 147.259198 
L 263.00301 189.912365 
L 263.184287 189.354669 
L 263.365564 167.809598 
L 263.546841 166.550566 
L 263.728117 163.001044 
L 263.909394 163.619822 
L 264.634501 174.777518 
L 264.997055 167.968614 
L 265.359608 178.405417 
L 265.540885 171.854098 
L 265.903438 182.576865 
L 266.809822 157.34757 
L 266.991099 160.233868 
L 267.353652 153.647843 
L 267.534929 125.859358 
L 267.716206 120.690603 
L 267.897482 127.744479 
L 268.260036 102.935176 
L 268.441312 89.069441 
L 268.622589 89.849425 
L 268.803866 94.853611 
L 269.166419 74.464006 
L 269.71025 144.398571 
L 269.891526 140.437614 
L 270.072803 155.030328 
L 270.25408 178.996199 
L 270.435357 182.884658 
L 270.79791 150.339189 
L 270.979187 143.796021 
L 271.160463 142.242042 
L 271.34174 138.659947 
L 271.523017 145.719346 
L 271.88557 127.718322 
L 272.066847 131.692657 
L 272.248124 141.418053 
L 272.429401 141.02331 
L 272.610677 137.626048 
L 272.973231 163.973897 
L 273.154508 193.726331 
L 273.335784 196.569496 
L 273.517061 190.392002 
L 273.698338 172.434389 
L 273.879614 176.531847 
L 274.423445 149.441685 
L 274.785998 118.130631 
L 274.967275 115.936403 
L 275.148552 118.757215 
L 275.329828 123.414367 
L 275.511105 133.113334 
L 275.692382 135.728206 
L 275.873659 148.88055 
L 276.054935 194.654655 
L 276.417489 162.796848 
L 276.780042 176.852404 
L 276.961319 179.371042 
L 277.142596 178.800331 
L 277.323872 193.841006 
L 277.505149 188.767816 
L 277.686426 193.541058 
L 278.048979 174.003253 
L 278.230256 170.075569 
L 278.411533 170.13165 
L 278.59281 168.202035 
L 279.13664 106.241305 
L 279.317917 99.249006 
L 279.499193 104.832108 
L 279.68047 103.070153 
L 279.861747 107.265628 
L 280.043023 108.1867 
L 280.2243 133.5322 
L 280.405577 134.242275 
L 280.586854 116.696532 
L 280.76813 130.581565 
L 281.130684 126.506903 
L 281.311961 132.437501 
L 281.493237 134.716855 
L 281.674514 141.293068 
L 281.855791 140.462802 
L 282.037068 138.370421 
L 282.218344 145.436169 
L 282.580898 119.925094 
L 282.762174 114.621107 
L 283.487281 188.050374 
L 283.668558 180.19069 
L 283.849835 186.83331 
L 284.031112 203.572125 
L 284.393665 212.268783 
L 284.574942 227.497168 
L 285.118772 201.140153 
L 285.662602 157.426043 
L 285.843879 153.911885 
L 286.025156 159.444841 
L 286.206432 158.780552 
L 286.387709 140.91288 
L 286.568986 139.927806 
L 286.931539 129.25447 
L 287.294093 156.720491 
L 287.47537 146.393459 
L 287.656646 150.682019 
L 287.837923 149.727939 
L 288.200476 178.41211 
L 288.381753 177.252109 
L 288.56303 181.520433 
L 288.744307 164.593577 
L 288.925583 160.745507 
L 289.10686 151.785824 
L 289.288137 169.389658 
L 289.469414 169.973093 
L 289.65069 154.246267 
L 289.831967 150.704005 
L 290.013244 143.994465 
L 290.194521 150.381317 
L 290.375797 146.122047 
L 290.738351 132.023377 
L 290.919627 129.59249 
L 291.282181 113.078928 
L 291.463458 113.741258 
L 291.644734 123.313736 
L 291.826011 119.489487 
L 292.188565 83.732799 
L 292.369841 80.720395 
L 292.551118 93.41753 
L 292.732395 93.056157 
L 293.094948 113.364768 
L 293.276225 125.771687 
L 293.457502 114.592652 
L 293.820055 127.993775 
L 294.363885 196.569974 
L 294.545162 198.969718 
L 294.907716 219.848573 
L 295.088992 180.999553 
L 295.451546 153.380997 
L 295.632823 157.255695 
L 295.814099 167.404189 
L 296.35793 147.20375 
L 296.539206 150.442683 
L 296.720483 148.775814 
L 296.90176 158.100667 
L 297.083036 160.315277 
L 297.264313 148.238724 
L 297.626867 142.993751 
L 297.98942 121.928886 
L 298.170697 126.461747 
L 298.351974 127.223798 
L 298.714527 146.837428 
L 298.895804 146.071107 
L 299.077081 136.296855 
L 299.258357 138.603962 
L 299.439634 133.710186 
L 299.620911 136.117006 
L 300.164741 117.712191 
L 300.527294 145.388834 
L 300.708571 142.196446 
L 301.071125 153.422974 
L 301.252401 154.902192 
L 301.614955 182.419635 
L 301.796232 162.778927 
L 301.977508 174.393776 
L 302.158785 176.986779 
L 302.340062 176.020452 
L 302.521338 170.095852 
L 302.702615 160.228874 
L 302.883892 159.223757 
L 303.427722 136.568444 
L 303.608999 133.867902 
L 303.790276 139.674401 
L 304.152829 115.518211 
L 304.334106 114.260819 
L 304.515383 114.484021 
L 304.696659 131.15492 
L 304.877936 130.919485 
L 305.059213 122.525667 
L 305.240489 127.882495 
L 305.421766 127.316898 
L 305.78432 149.726407 
L 305.965596 148.679224 
L 306.146873 150.316306 
L 306.509427 190.408515 
L 306.690703 162.576562 
L 306.87198 159.658845 
L 307.234534 179.647437 
L 307.41581 175.610133 
L 307.597087 176.906004 
L 307.778364 174.92409 
L 307.95964 174.663729 
L 308.140917 181.996996 
L 308.322194 182.423301 
L 308.503471 180.127685 
L 308.684747 175.393393 
L 308.866024 157.704716 
L 309.047301 160.676918 
L 309.409854 130.625217 
L 309.591131 131.207611 
L 309.772408 123.896848 
L 309.953685 123.700889 
L 310.134961 127.996595 
L 310.316238 124.545398 
L 310.497515 118.742708 
L 310.678791 116.788958 
L 310.860068 116.18751 
L 311.222622 121.193754 
L 311.403898 104.568896 
L 311.585175 104.111036 
L 311.766452 86.916596 
L 311.947729 82.980057 
L 312.310282 128.314791 
L 312.491559 115.789026 
L 312.672836 117.751248 
L 313.035389 132.866559 
L 313.216666 124.294918 
L 313.397942 125.951923 
L 313.579219 134.003182 
L 313.941773 125.693349 
L 314.304326 135.732925 
L 315.391987 172.331378 
L 315.573263 169.305241 
L 315.75454 169.4622 
L 316.117094 195.500811 
L 316.29837 193.840288 
L 316.479647 194.371539 
L 316.8422 163.77838 
L 317.023477 154.190406 
L 317.204754 154.494857 
L 317.386031 148.9368 
L 317.567307 138.853437 
L 317.929861 157.575443 
L 318.111138 145.831318 
L 318.292414 142.932357 
L 318.473691 146.751934 
L 318.654968 153.097981 
L 318.836245 167.69206 
L 319.017521 168.521125 
L 319.198798 168.674018 
L 319.380075 180.05575 
L 319.561351 164.913277 
L 319.742628 159.09456 
L 319.923905 160.365606 
L 320.105182 147.958871 
L 320.467735 106.861368 
L 320.830289 91.641216 
L 321.011565 92.312309 
L 321.192842 96.767894 
L 321.555396 92.31901 
L 321.736672 81.884648 
L 322.824333 155.806456 
L 323.005609 173.576473 
L 323.186886 164.932598 
L 323.368163 164.177068 
L 323.54944 165.826092 
L 323.911993 197.129824 
L 324.455823 153.617768 
L 324.818377 173.46144 
L 324.999653 175.741125 
L 325.18093 174.094271 
L 325.72476 150.83372 
L 325.906037 141.143213 
L 326.087314 144.664771 
L 326.449867 123.907007 
L 326.631144 113.174197 
L 326.993698 75.248817 
L 327.356251 64.5522 
L 327.537528 64.788848 
L 327.718804 62.106905 
L 328.081358 83.874716 
L 328.262635 80.864905 
L 328.443911 82.161023 
L 328.987742 142.875457 
L 329.169018 163.455788 
L 329.350295 166.84613 
L 329.531572 176.889667 
L 329.712849 175.608019 
L 329.894125 181.725363 
L 330.075402 174.025271 
L 330.256679 173.726328 
L 330.437955 201.979569 
L 330.981786 160.790898 
L 331.163062 156.814453 
L 331.525616 129.04134 
L 331.888169 143.288469 
L 332.069446 139.957142 
L 332.250723 125.049466 
L 332.432 133.278285 
L 332.613276 114.144581 
L 332.794553 108.821652 
L 333.157107 137.961662 
L 333.51966 131.322915 
L 333.700937 132.005365 
L 334.244767 177.657617 
L 334.426044 161.85036 
L 334.60732 156.076233 
L 334.788597 165.872253 
L 334.969874 147.328629 
L 335.151151 155.274491 
L 335.332427 140.130271 
L 335.513704 139.957254 
L 335.694981 141.379622 
L 336.057534 189.242268 
L 336.238811 184.104549 
L 336.420088 206.426179 
L 336.963918 153.57775 
L 337.326471 147.416808 
L 337.689025 121.120761 
L 337.870302 108.143674 
L 338.051578 111.764425 
L 338.232855 122.314583 
L 338.414132 125.434545 
L 338.595409 141.868717 
L 338.776685 140.187827 
L 338.957962 155.613213 
L 339.320515 129.646872 
L 339.501792 139.538487 
L 339.864346 93.549356 
L 340.045622 81.190739 
L 340.589453 108.769396 
L 340.952006 94.688121 
L 341.133283 126.801717 
L 341.31456 129.106379 
L 341.495836 123.316317 
L 341.677113 135.41717 
L 341.85839 139.345376 
L 342.220943 189.904826 
L 342.40222 190.198193 
L 342.764773 166.227352 
L 342.94605 152.868305 
L 343.127327 149.551216 
L 343.308604 149.238463 
L 343.671157 163.459314 
L 343.852434 161.19992 
L 344.033711 164.462561 
L 344.396264 181.731019 
L 344.577541 174.710018 
L 344.940094 183.586824 
L 345.121371 197.045663 
L 345.302648 196.935895 
L 345.483924 180.841921 
L 345.665201 187.246497 
L 346.390308 139.163828 
L 346.571585 136.016739 
L 346.752862 123.852243 
L 346.934138 138.585131 
L 347.115415 141.509246 
L 347.296692 147.145004 
L 347.477968 138.089084 
L 347.659245 143.621866 
L 348.203075 128.688067 
L 348.384352 125.383533 
L 348.565629 111.661589 
L 348.746906 114.082625 
L 348.928182 105.047656 
L 349.109459 110.445065 
L 349.290736 136.313835 
L 349.472013 137.617795 
L 349.653289 126.966022 
L 349.834566 126.269513 
L 350.015843 149.464681 
L 350.197119 151.834059 
L 350.378396 163.590881 
L 350.74095 218.47667 
L 350.922226 230.303996 
L 351.103503 216.940274 
L 351.28478 220.912192 
L 351.466057 234.194704 
L 351.647333 209.880208 
L 351.82861 204.520352 
L 352.191164 181.89475 
L 352.37244 175.098578 
L 352.553717 176.599571 
L 352.916271 145.919245 
L 353.278824 143.689528 
L 353.460101 149.590448 
L 353.641377 138.494581 
L 353.822654 139.09318 
L 354.003931 145.494191 
L 354.185208 158.840601 
L 354.366484 146.241792 
L 354.547761 143.150511 
L 354.729038 152.242056 
L 354.910315 145.390337 
L 355.272868 104.336396 
L 355.635422 112.970619 
L 355.816698 107.602706 
L 355.997975 122.244785 
L 356.179252 127.325027 
L 356.360528 141.236165 
L 356.541805 126.243686 
L 356.723082 121.095776 
L 356.904359 122.038044 
L 357.085635 119.210081 
L 357.266912 110.224547 
L 357.448189 108.257028 
L 357.810742 119.170401 
L 358.354573 147.642946 
L 358.535849 145.72532 
L 358.898403 119.988174 
L 359.079679 131.429289 
L 359.260956 130.954984 
L 359.442233 108.956752 
L 359.62351 104.900434 
L 359.804786 112.3058 
L 359.986063 109.157602 
L 360.16734 110.651794 
L 360.348617 106.436132 
L 360.529893 108.858866 
L 360.892447 106.061652 
L 361.073724 97.375488 
L 361.255 109.410236 
L 361.436277 108.482128 
L 361.617554 94.457337 
L 361.980107 107.038226 
L 362.342661 138.601497 
L 362.523937 137.795997 
L 362.705214 129.793587 
L 362.886491 139.391058 
L 363.067768 128.319829 
L 363.249044 127.825118 
L 363.611598 143.045261 
L 364.155428 123.607027 
L 364.336705 139.104935 
L 364.517981 137.617927 
L 364.699258 133.070567 
L 364.880535 132.128068 
L 365.061812 137.693101 
L 365.243088 134.510058 
L 365.424365 126.191355 
L 365.605642 132.37468 
L 365.786919 144.572107 
L 366.330749 126.124872 
L 366.693302 130.988393 
L 366.874579 115.377957 
L 367.418409 103.351274 
L 367.599686 99.042952 
L 367.780963 120.869148 
L 367.962239 122.656124 
L 368.143516 120.029685 
L 368.324793 127.410213 
L 368.50607 148.840585 
L 368.687346 152.084252 
L 368.868623 175.63225 
L 369.231177 152.274045 
L 369.412453 149.625248 
L 369.59373 178.713219 
L 369.775007 155.702738 
L 369.956284 155.304154 
L 370.13756 156.333036 
L 370.318837 165.237719 
L 370.500114 167.200735 
L 370.68139 163.526296 
L 370.862667 170.973579 
L 371.225221 168.771206 
L 371.406497 164.653291 
L 371.587774 163.113704 
L 371.950328 151.955051 
L 372.131604 156.694378 
L 372.494158 144.685918 
L 373.037988 149.904775 
L 373.219265 166.197425 
L 373.400541 170.15275 
L 373.581818 164.164695 
L 373.581818 164.164695 
" style="fill:none;stroke:#008000;stroke-linecap:square;"/>
   </g>
   <g id="patch_3">
    <path d="M 54 252 
L 54 34.56 
" style="fill:none;stroke:#000000;stroke-linecap:square;stroke-linejoin:miter;stroke-width:0.8;"/>
   </g>
   <g id="patch_4">
    <path d="M 388.8 252 
L 388.8 34.56 
" style="fill:none;stroke:#000000;stroke-linecap:square;stroke-linejoin:miter;stroke-width:0.8;"/>
   </g>
   <g id="patch_5">
    <path d="M 54 252 
L 388.8 252 
" style="fill:none;stroke:#000000;stroke-linecap:square;stroke-linejoin:miter;stroke-width:0.8;"/>
   </g>
   <g id="patch_6">
    <path d="M 54 34.56 
L 388.8 34.56 
" style="fill:none;stroke:#000000;stroke-linecap:square;stroke-linejoin:miter;stroke-width:0.8;"/>
   </g>
  </g>
 </g>
 <defs>
  <clipPath id="p1df6d54740">
   <rect height="217.44" width="334.8" x="54" y="34.56"/>
  </clipPath>
 </defs>
</svg>
